<svg width="6178" height="3109" viewBox="0 0 6178 3109" fill="none" xmlns="http://www.w3.org/2000/svg">
  <g clip-path="url(#clip0_309_28)">
    <path d="M718.742 1952.22V1947.28L714.648 1942.79C708.536 1945.48 703.099 1949.46 698.727 1954.46C689.629 1967.48 707.825 1995.76 707.825 1995.76C701.605 1994.01 695.986 1990.62 691.576 1985.95C687.167 1981.29 684.134 1975.52 682.805 1969.27C684.652 1956.26 688.326 1943.57 693.723 1931.57C697.362 1921.24 701.001 1906.43 704.64 1890.72C708.28 1875.01 711.919 1860.19 716.923 1841.79C727.385 1806.33 742.397 1765.93 751.04 1730.02C756.777 1708.6 761.183 1686.87 764.232 1664.93C768.326 1626.32 772.875 1554.05 775.605 1506.47C776.206 1499.45 776.206 1492.39 775.605 1485.37C775.726 1450.21 787.733 1416.08 809.722 1388.41C830.193 1370.91 849.299 1374.05 872.953 1362.83C848.854 1354.42 822.847 1352.87 797.895 1358.34C797.895 1358.34 726.476 1414 692.358 1661.34C692.358 1661.34 650.507 1891.62 649.143 1915.41C651.528 1939.07 655.172 1962.59 660.06 1985.88C674.559 1992.42 689.847 1997.1 705.55 1999.8C710.099 1999.8 716.468 1999.8 727.385 1994.86C738.8 1990.5 751.453 1990.5 762.868 1994.86C717.378 1975.56 727.84 1960.74 721.927 1949.97" fill="#333333"/>
    <path d="M1023.53 1125.36H1066.74C1079.48 1125.36 1087.21 1122.22 1086.76 1113.69C1086.3 1105.16 1068.11 1103.37 1068.11 1103.37L1036.72 1108.31C1036.72 1108.31 1033.08 1121.32 1023.98 1124.02" fill="#333333"/>
    <path d="M1431.12 1349.81C1431.12 1346.22 1424.75 1294.14 1424.75 1254.19C1424.75 1233.54 1424.75 1216.49 1424.75 1209.3C1424.75 1202.12 1412.01 1202.57 1409.74 1209.3C1407.46 1216.04 1401.09 1217.83 1401.09 1217.83C1401.09 1217.83 1397.45 1217.83 1396.54 1227.71C1396.54 1220.08 1394.27 1220.53 1391.54 1218.28C1388.81 1216.04 1377.89 1238.93 1377.89 1238.93C1377.89 1238.93 1377.89 1244.77 1377.89 1259.58C1377.89 1262.72 1377.89 1266.31 1377.89 1270.35C1377.29 1291.62 1380.84 1312.81 1388.36 1332.75C1388.85 1334.07 1389.71 1335.23 1390.83 1336.11C1391.96 1336.98 1393.3 1337.53 1394.72 1337.69C1393.06 1348 1394.32 1358.56 1398.36 1368.21C1410.65 1387.06 1417.01 1382.58 1417.01 1382.58C1438.85 1364.62 1432.94 1357.89 1432.48 1350.7" fill="#333333"/>
    <path d="M951.196 1282.47C953.599 1280.15 956.443 1278.32 959.566 1277.09C962.689 1275.85 966.029 1275.24 969.392 1275.29C972.777 1275.35 976.116 1276.07 979.215 1277.42C982.313 1278.76 985.109 1280.7 987.439 1283.13C989.768 1285.55 991.584 1288.41 992.782 1291.54C993.979 1294.66 994.533 1297.99 994.412 1301.33C994.289 1305.12 993.281 1308.84 991.467 1312.18C989.652 1315.53 987.08 1318.42 983.949 1320.63H978.945C969.872 1319.7 960.725 1319.7 951.651 1320.63C946.873 1315.84 944.194 1309.39 944.194 1302.67C944.194 1295.95 946.873 1289.51 951.651 1284.72L951.196 1282.47ZM919.808 1303.12C919.971 1313.72 923.646 1323.96 930.271 1332.3C921.133 1340.8 912.477 1349.79 904.342 1359.23C900.414 1363.48 895.378 1366.59 889.785 1368.21C889.785 1368.21 879.322 1430.16 902.977 1422.08C902.977 1422.08 906.616 1407.26 919.353 1409.96C925.6 1411.9 932.284 1411.99 938.586 1410.24C944.888 1408.49 950.535 1404.96 954.835 1400.08C960.749 1395.59 977.58 1400.08 977.58 1400.08C990.773 1397.39 1006.69 1403.67 1009.42 1391.55C1009.54 1390.51 1009.54 1389.46 1009.42 1388.41C998.961 1379.43 968.482 1383.92 968.482 1383.92C972.158 1382.6 975.973 1381.7 979.855 1381.23C979.855 1381.23 986.224 1381.23 986.678 1377.64C992.241 1378.54 997.719 1379.89 1003.05 1381.68C1014.43 1385.27 1014.88 1381.68 1015.79 1377.64C1015.48 1374.89 1014.19 1372.35 1012.15 1370.46C1005.06 1367.53 997.766 1365.13 990.318 1363.27C981.691 1362.54 973.015 1362.54 964.388 1363.27C968.169 1361.7 972.148 1360.65 976.216 1360.13C980.31 1360.13 984.404 1360.13 983.949 1355.64C990.446 1356.58 996.745 1358.55 1002.6 1361.48C1009.88 1365.07 1013.52 1365.07 1015.79 1363.72C1018.07 1362.38 1018.07 1361.03 1018.52 1360.13V1357.89C1018.17 1356.03 1017.37 1354.28 1016.18 1352.79C1014.99 1351.31 1013.45 1350.13 1011.7 1349.36C1002.18 1345.94 992.454 1343.09 982.584 1340.83C973.822 1341.28 965.131 1342.63 956.655 1344.87C961.956 1341.94 967.871 1340.25 973.941 1339.93C983.039 1339.93 981.675 1333.2 981.675 1333.2C981.675 1333.2 981.675 1335.89 1001.69 1341.28C1006.69 1341.28 1019.43 1349.36 1015.79 1337.69C1014.25 1335.37 1012.42 1333.26 1010.33 1331.4C1016.32 1323.13 1019.64 1313.28 1019.89 1303.12C1020.32 1296.36 1019.35 1289.58 1017.04 1283.19C1014.72 1276.81 1011.11 1270.96 1006.43 1266C1001.74 1261.05 996.083 1257.08 989.793 1254.36C983.504 1251.63 976.716 1250.2 969.847 1250.15C966.518 1249.86 963.169 1249.86 959.839 1250.15C946.647 1268.11 930.726 1285.17 919.353 1298.18" fill="#333333"/>
    <path d="M953.471 1961.19C928.906 1943.24 862.491 1973.76 862.491 1973.76C862.491 1973.76 850.663 2001.14 874.773 2000.69C892.712 2001.49 910.686 2000.59 928.451 1998C946.842 1997.45 965.249 1998.35 983.494 2000.69C1011.7 1993.06 952.561 1961.19 952.561 1961.19" fill="#333333"/>
    <path d="M568.17 1819.34C562.712 1850.32 550.884 1904.18 549.065 1923.49C547.245 1942.79 546.79 1977.35 546.79 1977.35C554.068 1981.84 563.621 1984.98 566.806 1986.78L603.653 1691.41C603.653 1691.41 573.629 1788.37 568.17 1819.34Z" fill="#333333"/>
    <path d="M1037.17 1105.61H1067.2C1088.58 1105.61 1095.4 1097.98 1087.21 1089.45C1079.02 1080.92 1052.18 1085.41 1052.18 1085.41L1031.71 1092.59C1031.71 1092.59 1041.72 1092.59 1036.72 1106.51" fill="#333333"/>
    <path d="M2140.76 1882.64H2052.51V1654.15C2052.51 1654.15 2052.51 1651.91 2052.51 1651.01C2055.13 1641.5 2060.85 1633.11 2068.78 1627.12C2076.71 1621.14 2086.42 1617.89 2096.41 1617.89C2106.39 1617.89 2116.1 1621.14 2124.04 1627.12C2131.97 1633.11 2137.69 1641.5 2140.31 1651.01C2140.31 1651.01 2140.31 1651.01 2140.31 1654.15L2140.76 1882.64ZM1987.91 1582.33C1974.78 1582.33 1961.94 1578.49 1951.02 1571.29C1940.09 1564.08 1931.58 1553.85 1926.55 1541.87C1921.53 1529.9 1920.21 1516.72 1922.77 1504.01C1925.34 1491.29 1931.66 1479.62 1940.95 1470.45C1950.24 1461.29 1962.07 1455.04 1974.96 1452.51C1987.84 1449.99 2001.19 1451.28 2013.33 1456.24C2025.47 1461.2 2035.84 1469.6 2043.14 1480.38C2050.43 1491.16 2054.33 1503.83 2054.33 1516.79C2054.33 1534.17 2047.33 1550.84 2034.88 1563.14C2022.42 1575.43 2005.53 1582.33 1987.91 1582.33ZM1922.86 1882.64H1835.07V1654.15C1835.07 1654.15 1835.07 1651.91 1835.07 1651.01C1837.69 1641.5 1843.4 1633.11 1851.34 1627.12C1859.27 1621.14 1868.98 1617.89 1878.97 1617.89C1888.95 1617.89 1898.66 1621.14 1906.59 1627.12C1914.53 1633.11 1920.24 1641.5 1922.86 1651.01C1922.86 1651.01 1922.86 1651.01 1922.86 1654.15V1882.64ZM1944.24 891.043C1945.06 880.582 1949.57 870.735 1956.98 863.212C1963.17 857.863 1970.72 854.271 1978.81 852.818C1986.91 851.366 1995.25 852.107 2002.95 854.963C2010.65 857.818 2017.43 862.682 2022.55 869.036C2027.67 875.389 2030.95 882.995 2032.04 891.043V897.776V1136.58H1944.24V891.043ZM407.136 1882.64H319.34V1654.15C319.34 1654.15 319.34 1651.91 319.34 1651.01C321.959 1641.5 327.676 1633.11 335.609 1627.12C343.543 1621.14 353.252 1617.89 363.238 1617.89C373.224 1617.89 382.933 1621.14 390.866 1627.12C398.8 1633.11 404.517 1641.5 407.136 1651.01C407.136 1651.01 407.136 1651.01 407.136 1654.15V1882.64ZM254.289 1582.33C241.154 1582.33 228.313 1578.49 217.391 1571.29C206.469 1564.08 197.956 1553.85 192.929 1541.87C187.903 1529.9 186.587 1516.72 189.15 1504.01C191.713 1491.29 198.038 1479.62 207.326 1470.45C216.615 1461.29 228.449 1455.04 241.332 1452.51C254.216 1449.99 267.569 1451.28 279.705 1456.24C291.841 1461.2 302.214 1469.6 309.512 1480.38C316.809 1491.16 320.705 1503.83 320.705 1516.79C320.705 1525.4 318.987 1533.92 315.649 1541.87C312.311 1549.82 307.419 1557.05 301.252 1563.14C295.085 1569.22 287.763 1574.05 279.705 1577.34C271.647 1580.64 263.011 1582.33 254.289 1582.33ZM189.693 1882.64H101.898V1654.15C101.811 1653.11 101.811 1652.06 101.898 1651.01C104.517 1641.5 110.234 1633.11 118.167 1627.12C126.101 1621.14 135.809 1617.89 145.796 1617.89C155.782 1617.89 165.491 1621.14 173.424 1627.12C181.357 1633.11 187.075 1641.5 189.693 1651.01C189.693 1651.01 189.693 1651.01 189.693 1654.15V1882.64ZM210.164 898.225V891.043C211.295 879.932 216.583 869.636 224.995 862.166C233.406 854.695 244.338 850.587 255.654 850.643C266.97 850.587 277.902 854.695 286.313 862.166C294.725 869.636 300.012 879.932 301.144 891.043V1136.58H210.164V898.225ZM2174.42 1379.88L2161.69 756.376H2207.18L2014.3 383.35C2026.09 377.491 2035.54 367.877 2041.11 356.063C2046.69 344.249 2048.06 330.926 2045.01 318.247C2041.96 305.568 2034.66 294.276 2024.3 286.196C2013.94 278.116 2001.12 273.72 1987.91 273.72C1974.71 273.72 1961.89 278.116 1951.53 286.196C1941.17 294.276 1933.87 305.568 1930.82 318.247C1927.77 330.926 1929.14 344.249 1934.71 356.063C1940.29 367.877 1949.73 377.491 1961.53 383.35L1770.47 756.376H1815.96L1810.5 939.972L1799.13 895.083C1779.99 822.156 1736.87 757.556 1676.53 711.414C1616.19 665.271 1542.03 640.194 1465.69 640.114H1457.05C1443.88 579.493 1414.23 523.557 1371.27 478.318C1328.31 433.079 1273.67 400.247 1213.22 383.35V262.599H1231.41L1140.43 85.7374C1149.53 81.1517 1156.8 73.6791 1161.06 64.5228C1165.33 55.3665 1166.35 45.0592 1163.96 35.2605C1161.57 25.4618 1155.91 16.7418 1147.89 10.5045C1139.87 4.26718 1129.95 0.875488 1119.74 0.875488C1109.52 0.875488 1099.61 4.26718 1091.58 10.5045C1083.56 16.7418 1077.9 25.4618 1075.51 35.2605C1073.12 45.0592 1074.14 55.3665 1078.41 64.5228C1082.68 73.6791 1089.94 81.1517 1099.04 85.7374L1010.33 262.599H1028.98V384.697C968.535 401.594 913.895 434.426 870.935 479.665C827.976 524.904 798.321 580.84 785.158 641.461H776.515C700.173 641.541 626.017 666.618 565.673 712.76C505.329 758.903 462.208 823.502 443.073 896.43L431.245 941.318L428.061 756.376H473.551L280.673 383.35C292.469 377.491 301.917 367.877 307.49 356.063C313.063 344.249 314.435 330.926 311.383 318.247C308.332 305.568 301.036 294.276 290.676 286.196C280.315 278.116 267.495 273.72 254.289 273.72C241.083 273.72 228.264 278.116 217.903 286.196C207.542 294.276 200.246 305.568 197.195 318.247C194.144 330.926 195.515 344.249 201.088 356.063C206.661 367.877 216.109 377.491 227.905 383.35L36.392 756.376H81.882L70.0546 1379.88H11.3725L0 2002.04H508.578L497.661 1379.88V1096.63C499.54 1043.34 507.785 990.458 522.226 939.074C526.775 924.261 531.323 909.896 535.872 894.185C553.666 845.405 586.284 803.233 629.271 773.427C672.259 743.621 723.521 727.633 776.06 727.648C807.18 727.88 838.002 733.659 867.04 744.705C865.531 733.244 864.771 721.699 864.765 710.141C863.314 676.266 868.822 642.451 880.958 610.731C893.094 579.011 911.608 550.041 935.385 525.565C959.162 501.089 987.711 481.613 1019.31 468.307C1050.92 455.002 1084.92 448.143 1119.28 448.143C1153.64 448.143 1187.65 455.002 1219.25 468.307C1250.85 481.613 1279.4 501.089 1303.18 525.565C1326.96 550.041 1345.47 579.011 1357.61 610.731C1369.74 642.451 1375.25 676.266 1373.8 710.141C1373.86 721.701 1373.1 733.25 1371.52 744.705C1400.56 733.659 1431.38 727.88 1462.5 727.648C1515.04 727.633 1566.31 743.621 1609.29 773.427C1652.28 803.233 1684.9 845.405 1702.69 894.185C1707.7 908.101 1712.24 922.465 1716.34 939.074C1730.82 990.449 1739.07 1043.34 1740.9 1096.63V1379.88L1729.99 2002.04H2242.66L2230.83 1379.88H2174.42Z" fill="#333333"/>
    <path d="M1211.85 1223.22C1217.15 1223.43 1222.42 1222.51 1227.32 1220.53C1239.21 1214.65 1248.92 1205.23 1255.07 1193.59C1255.87 1188.73 1255.11 1183.74 1252.91 1179.32C1250.71 1174.9 1247.17 1171.26 1242.79 1168.9C1240.86 1168.02 1238.77 1167.56 1236.65 1167.56C1234.52 1167.56 1232.43 1168.02 1230.51 1168.9C1225.38 1170.87 1220.37 1173.12 1215.49 1175.64C1218.68 1172.5 1215.49 1165.76 1215.49 1165.76C1223.23 1171.15 1255.52 1156.78 1249.16 1120.87C1248.04 1116.45 1247.28 1111.95 1246.88 1107.41C1247.46 1102.19 1247.46 1096.92 1246.88 1091.7C1246.88 1084.96 1249.16 1072.84 1246.88 1067.01C1244.61 1061.17 1236.87 1062.52 1233.23 1063.86C1220.04 1069.7 1220.04 1090.35 1218.22 1096.63H1214.13C1211.4 1096.63 1210.94 1093.49 1207.76 1090.35C1204.02 1086.37 1200.53 1082.17 1197.3 1077.78C1194.57 1074.19 1176.37 1054.44 1167.73 1046.81C1159.09 1039.18 1154.54 1046.81 1154.08 1051.3C1153.63 1055.78 1169.09 1079.13 1169.09 1079.13C1181.83 1096.18 1185.47 1097.53 1185.47 1097.53L1181.83 1100.22C1181.83 1100.22 1181.83 1100.22 1165.45 1079.13C1165.45 1079.13 1146.8 1053.99 1140.44 1047.26C1139.35 1046.27 1138.04 1045.54 1136.62 1045.13C1135.2 1044.72 1133.7 1044.65 1132.25 1044.91C1130.79 1045.17 1129.42 1045.76 1128.23 1046.64C1127.05 1047.51 1126.09 1048.65 1125.42 1049.95C1121.33 1058.48 1148.17 1090.35 1148.17 1090.35C1153.74 1099 1160.82 1106.6 1169.09 1112.79L1165 1116.38C1167.27 1116.38 1144.07 1090.35 1144.07 1090.35C1134.52 1080.92 1127.24 1068.8 1119.96 1063.42C1112.69 1058.03 1107.68 1071.94 1112.23 1078.68C1116.78 1085.41 1117.24 1087.21 1124.06 1096.18C1130.88 1105.16 1152.26 1124.91 1152.26 1124.91C1141.96 1113.07 1130.36 1102.39 1117.69 1093.04C1105.86 1084.96 1102.68 1095.29 1105.41 1101.12C1111.04 1109.62 1117.28 1117.72 1124.06 1125.36C1127.24 1128.95 1150.44 1145.56 1152.26 1147.81L1162.73 1162.62C1167.56 1169.54 1173.04 1176.01 1179.1 1181.92C1179.1 1181.92 1189.11 1188.66 1195.48 1185.51C1193.84 1189.01 1192.95 1192.79 1192.85 1196.64C1192.74 1200.48 1193.44 1204.31 1194.89 1207.88C1196.33 1211.45 1198.5 1214.69 1201.27 1217.41C1204.03 1220.12 1207.32 1222.25 1210.94 1223.67" fill="#333333"/>
    <path d="M1524.83 1564.38C1514.01 1569.83 1501.89 1572.25 1489.78 1571.38C1477.67 1570.51 1466.03 1566.38 1456.14 1559.44C1435.49 1548.52 1415.73 1536.06 1397 1522.18C1417.81 1532.03 1440.82 1536.51 1463.87 1535.2C1483.94 1529.02 1504.73 1525.4 1525.74 1524.42C1525.74 1524.42 1485.25 1536.54 1487.52 1558.09C1487.52 1566.17 1505.72 1568.42 1524.37 1563.93L1524.83 1564.38ZM1238.69 1462.48C1243.47 1463.68 1248.47 1463.68 1253.25 1462.48L1276.9 1454.85C1284.64 1452.6 1284.18 1454.85 1286.46 1448.11C1287.01 1453.47 1289.54 1458.45 1293.57 1462.09C1297.59 1465.73 1302.83 1467.78 1308.29 1467.86C1323.3 1467.86 1331.49 1458.44 1342.87 1458.89H1357.42C1357.42 1463.38 1359.7 1466.52 1359.7 1466.52C1371.52 1475.94 1379.26 1463.38 1374.25 1453.95C1378.81 1458.32 1384.75 1461.01 1391.08 1461.58C1409.98 1460.36 1428.63 1456.74 1446.58 1450.81C1462.05 1445.42 1492.07 1434.2 1495.71 1424.77C1499.35 1415.35 1483.88 1391.55 1477.97 1375.84C1475.7 1369.56 1474.79 1368.66 1471.15 1359.68C1473.88 1366.42 1480.7 1380.33 1488.43 1396.04L1492.07 1403.67C1497.99 1414.45 1503.9 1425.67 1509.81 1435.1C1514.58 1444 1520.22 1452.41 1526.64 1460.23C1539.15 1470.66 1550.31 1482.57 1559.85 1495.7C1545.58 1462.52 1534.46 1428.11 1526.64 1392.9C1517.12 1366.48 1505.56 1340.82 1492.07 1316.14C1483.88 1296.97 1477.93 1276.94 1474.33 1256.44C1473.12 1244.65 1473.12 1232.77 1474.33 1220.98C1474.33 1220.98 1500.26 1297.74 1502.99 1310.75C1505.72 1323.77 1532.56 1405.02 1538.02 1416.69C1543.48 1428.36 1578.96 1524.42 1588.06 1534.75C1594.78 1541.01 1601.01 1547.77 1606.71 1554.95C1617.7 1567.83 1627.74 1581.48 1636.73 1595.8C1630.5 1587.76 1622.16 1581.55 1612.62 1577.84C1609.35 1576.04 1606.59 1573.44 1604.6 1570.3C1602.61 1567.17 1601.46 1563.58 1601.25 1559.89C1598.79 1550.92 1594.28 1542.62 1588.06 1535.65C1582.53 1531.02 1577.77 1525.57 1573.95 1519.49C1569.86 1513.2 1565.77 1505.57 1561.67 1498.39C1549.08 1487.17 1535.36 1477.24 1520.73 1468.76C1502.99 1460.23 1494.35 1455.74 1481.61 1460.68C1455.17 1472.07 1426.75 1478.32 1397.91 1479.09C1362.43 1473.7 1384.26 1489.86 1384.26 1489.86C1404.69 1497.93 1426.41 1502.33 1448.4 1502.88C1472.84 1503.07 1497.2 1505.47 1521.19 1510.06C1534.63 1512.34 1547.11 1518.42 1557.12 1527.57C1533.91 1517.72 1508.26 1514.91 1483.43 1519.49C1447.43 1521.87 1411.94 1510.09 1384.72 1486.72C1352.87 1472.35 1356.51 1491.66 1361.06 1496.59C1364.69 1500.67 1368.81 1504.29 1373.34 1507.37C1351.05 1499.74 1361.52 1514.1 1361.52 1514.1C1370.42 1518.59 1378.81 1524 1386.54 1530.26C1446.58 1585.02 1489.8 1594 1515.73 1589.96C1520.57 1588.33 1525.63 1587.43 1530.74 1587.27C1524.66 1589.44 1519.1 1592.8 1514.36 1597.14C1493.6 1608.3 1470.63 1614.88 1447.04 1616.45C1422.38 1620.46 1397.07 1616.69 1374.71 1605.67C1367.88 1600.29 1366.07 1581.88 1379.71 1577.84C1393.36 1573.8 1402.46 1566.62 1403.37 1555.85C1404.28 1545.07 1386.54 1530.71 1386.54 1530.71C1358.79 1515.45 1348.32 1525.32 1348.32 1525.32L1355.6 1474.6H1320.12C1314.98 1475.21 1309.79 1475.21 1304.65 1474.6H1301.92H1281.45V1466.97L1273.72 1462.93C1270.4 1462.45 1267.03 1462.45 1263.71 1462.93L1248.25 1467.86L1238.69 1462.48ZM1456.59 1291.9C1458.86 1302.23 1462.05 1322.87 1466.14 1340.38C1459.5 1347.02 1452.52 1353.31 1445.22 1359.23C1465.23 1342.63 1458.86 1302.67 1456.59 1291.9ZM1449.31 1169.8C1464.12 1174.39 1479.99 1174.39 1494.8 1169.8C1492.53 1179.68 1471.15 1179.23 1471.15 1179.23C1477.78 1183.88 1483.35 1189.84 1487.52 1196.74C1496.62 1211.1 1475.24 1203.02 1475.24 1203.02C1475.24 1183.72 1449.31 1169.8 1449.31 1169.8ZM1634 1717.45C1633.65 1693.18 1627.08 1669.4 1614.9 1648.32C1634 1669.68 1644.8 1697.04 1645.37 1725.53C1645.37 1775.8 1642.19 1905.08 1638.55 1940.54C1638.55 1940.54 1616.26 1968.38 1600.79 1920.79C1600.79 1920.79 1616.26 1930.22 1622.17 1892.96C1632.11 1834.85 1636.07 1775.9 1634 1717V1717.45ZM1525.28 1910.02C1528.01 1899.7 1528.92 1771.76 1528.92 1771.76C1533.01 1819.79 1549.84 1930.22 1549.84 1930.22C1530.28 1930.22 1523.01 1919.9 1525.74 1909.57L1525.28 1910.02ZM1502.08 1681.54C1502.08 1672.56 1502.08 1666.72 1497.99 1665.82C1487.83 1675.05 1480.44 1686.85 1476.61 1699.94C1469.33 1721.94 1462.96 1738.99 1441.12 1794.21C1405.19 1883.98 1378.35 1901.49 1378.35 1901.49C1380.53 1886 1377.49 1870.23 1369.7 1856.6C1402 1822.49 1499.35 1646.07 1513.91 1629.46C1528.46 1612.86 1531.65 1619.59 1531.65 1619.59C1514.72 1636.3 1504.4 1658.43 1502.54 1681.98L1502.08 1681.54ZM1377.89 1717.9C1371.52 1690.51 1338.77 1630.81 1359.24 1628.12C1367.88 1628.12 1416.56 1669.86 1439.3 1669.86C1445.94 1670.78 1452.7 1669.57 1458.6 1666.42C1464.49 1663.27 1469.21 1658.34 1472.06 1652.36C1488.89 1622.28 1497.53 1618.24 1497.53 1618.24C1489.25 1628.78 1482.23 1640.23 1476.61 1652.36C1468.87 1668.07 1459.32 1685.13 1450.22 1703.98C1426.09 1749.39 1398.25 1792.77 1366.98 1833.71C1378.55 1795.93 1382.11 1756.2 1377.44 1717L1377.89 1717.9ZM1171.82 1896.55L1165.45 1932.91C1156.93 1960.7 1157.72 1990.45 1167.73 2017.75C1186.71 1995.5 1197.88 1967.79 1199.57 1938.75C1205.03 1906.88 1225.96 1791.96 1245.06 1687.37C1239.6 1637.54 1236.42 1590.86 1249.16 1579.64C1261.89 1568.42 1271.45 1561.23 1267.35 1564.38C1274.63 1524.87 1279.18 1498.39 1279.18 1498.39L1337.41 1519.94C1316.8 1528.84 1297.52 1540.47 1280.09 1554.5C1257.12 1600.14 1251.63 1652.42 1264.62 1701.74C1266.02 1724.96 1263.09 1748.24 1255.98 1770.42C1258.76 1805.7 1264.54 1840.68 1273.27 1875.01C1273.27 1875.01 1287.37 1909.57 1312.39 1919.9C1312.39 1919.9 1285.55 1915.86 1281 1907.33C1277 1911.2 1273.76 1915.76 1271.45 1920.79C1271.45 1920.79 1245.97 1937.85 1255.07 1953.56C1249.08 1960.45 1242.01 1966.36 1234.14 1971.07C1224.16 1977.97 1213.3 1983.56 1201.85 1987.68C1195.13 1990.19 1189.17 1994.36 1184.56 1999.8C1184.56 2003.39 1184.56 2003.84 1187.29 2002.49C1189.89 1999.43 1193.16 1996.97 1196.84 1995.31C1188.65 1999.8 1189.11 2004.29 1191.84 2006.53C1191.84 2006.53 1196.39 2006.53 1199.57 2000.7C1200.84 1998.72 1202.5 1997.03 1204.46 1995.72C1206.41 1994.4 1208.62 1993.5 1210.94 1993.06C1210.94 1993.06 1196.39 1999.35 1201.85 2007.43C1207.31 2015.51 1214.13 2000.25 1215.95 1998.45C1221.35 1994 1228.03 1991.33 1235.05 1990.82C1216.86 1996.21 1215.04 1999.35 1220.04 2007.43C1223.87 2009.51 1228.18 2010.6 1232.55 2010.6C1236.93 2010.6 1241.23 2009.51 1245.06 2007.43C1261.44 2007.43 1285.55 1994.41 1301.01 1993.51C1306.93 1993.51 1306.93 1993.51 1316.48 1996.66C1326.03 1999.8 1337.86 1996.66 1341.05 1993.06C1351.05 1974.21 1317.39 1952.66 1311.48 1948.18C1305.56 1943.69 1291.01 1935.16 1291.01 1935.16C1302.39 1941.45 1314.25 1946.86 1326.49 1951.32C1333.64 1954.29 1341.12 1956.4 1348.78 1957.6C1371.52 1960.3 1382.9 1949.52 1404.28 1947.73C1447.56 1913.21 1475.21 1863.17 1481.15 1808.57C1490.42 1774.49 1497.41 1739.86 1502.08 1704.88C1500.71 1728.95 1500.71 1753.08 1502.08 1777.15C1502.08 1803.63 1506.17 1891.62 1502.08 1905.98C1497.99 1920.34 1492.07 1923.49 1492.07 1923.49C1495.6 1932.53 1501.29 1940.6 1508.65 1947.01C1516.02 1953.42 1524.84 1957.98 1534.38 1960.3C1542.4 1961.11 1550.51 1960.03 1558.03 1957.15C1568.13 1964.22 1579.74 1968.9 1591.97 1970.85C1604.19 1972.8 1616.7 1971.95 1628.54 1968.38C1635.97 1965.76 1643.13 1962.46 1649.92 1958.5C1654.93 1955.81 1655.38 1729.57 1653.11 1699.49C1653.51 1687 1650.19 1674.67 1643.55 1664.03C1637.85 1652.86 1630.32 1642.7 1621.26 1633.95C1618.33 1631.64 1616.1 1628.57 1614.82 1625.09C1613.53 1621.6 1613.25 1617.84 1613.99 1614.2C1613.99 1591.31 1618.99 1593.55 1626.72 1602.98C1637.82 1621.29 1643.64 1642.24 1643.55 1663.58C1649.62 1671.96 1655.24 1680.65 1660.39 1689.62C1664.26 1703.18 1665.65 1717.32 1664.48 1731.36C1664.48 1731.36 1664.48 1932.91 1664.48 1952.66C1666.77 1947.32 1669.84 1942.33 1673.58 1937.85C1673.58 1937.85 1673.58 1689.17 1667.21 1636.65C1667.21 1623.18 1659.02 1616.9 1657.2 1605.22C1657.25 1584.64 1651.92 1564.39 1641.73 1546.42C1650.98 1555.5 1657.98 1566.56 1662.21 1578.74C1670.44 1602.19 1676.23 1626.4 1679.49 1651.01C1682.68 1669.42 1689.95 1698.14 1689.95 1698.14C1695.31 1658.33 1691.58 1617.84 1679.04 1579.64C1672.89 1562.5 1665.12 1545.97 1655.84 1530.26C1646.74 1515 1637.19 1503.33 1634.46 1499.74C1598.52 1442.28 1593.97 1424.32 1557.58 1354.75C1536.11 1315.77 1526.62 1271.47 1530.28 1227.26C1533.24 1239.01 1538.67 1250.02 1546.21 1259.58C1550.14 1265.48 1552.84 1272.08 1554.17 1279.02C1555.5 1285.95 1555.42 1293.08 1553.94 1299.98C1554.75 1322.54 1561.49 1344.51 1573.5 1363.72C1589.25 1397.31 1607.97 1429.45 1629.45 1459.78C1641.73 1475.05 1648.56 1472.8 1648.56 1472.8C1641.73 1419.39 1595.79 1248.36 1595.79 1248.36C1609 1258.42 1617.93 1272.99 1620.81 1289.21C1623.54 1299.53 1628.54 1334.1 1637.64 1368.66C1649.92 1417.59 1686.77 1548.22 1689.04 1550.46C1675.85 1464.27 1679.49 1464.27 1671.3 1429.71C1666.3 1408.61 1668.12 1378.99 1664.02 1350.26C1657.66 1305.37 1655.84 1290.55 1655.38 1282.03C1650.38 1195.84 1623.08 1192.25 1623.08 1192.25C1635.37 1159.48 1619.44 1151.4 1619.44 1151.4C1611.15 1145.86 1601.24 1143.18 1591.24 1143.77C1579.87 1150.95 1582.6 1134.34 1571.23 1140.18C1559.85 1146.01 1546.21 1149.6 1546.21 1149.6C1579.87 1124.02 1565.77 1116.39 1565.77 1116.39C1557.62 1128.19 1546.61 1137.78 1533.74 1144.29C1520.86 1150.8 1506.53 1154.02 1492.07 1153.64C1481.18 1154.67 1470.21 1154.67 1459.32 1153.64C1453.86 1153.64 1451.13 1157.68 1448.86 1163.07C1449 1161.78 1448.87 1160.48 1448.48 1159.25C1448.09 1158.01 1447.44 1156.87 1446.58 1155.89C1449.31 1152.3 1451.13 1148.71 1446.58 1143.77C1444.37 1142.22 1442.51 1140.23 1441.12 1137.93C1439.73 1134.74 1439.02 1131.3 1439.02 1127.83C1439.02 1124.36 1439.73 1120.92 1441.12 1117.73C1445.22 1111.45 1450.68 1106.51 1450.68 1097.53C1440.68 1096.89 1430.79 1099.93 1422.93 1106.06C1417.92 1111.45 1414.28 1115.94 1407.46 1122.22C1401.18 1129.03 1396.92 1137.42 1395.18 1146.46C1392.45 1157.23 1406.1 1162.62 1406.1 1162.62C1406.1 1162.62 1378.35 1159.03 1394.72 1136.14C1391.99 1138.83 1381.53 1142.87 1374.71 1147.36C1367.88 1151.85 1364.25 1165.76 1360.61 1172.5C1356.14 1181.47 1351.13 1190.16 1345.59 1198.53C1337.73 1209.68 1332.45 1222.4 1330.13 1235.79C1335.02 1230.77 1340.9 1226.8 1347.41 1224.12C1353.08 1222.65 1359.03 1222.65 1364.7 1224.12C1371.07 1224.12 1371.07 1224.12 1382.44 1216.04C1393.81 1207.96 1396.54 1193.59 1410.19 1184.62C1423.84 1175.64 1430.21 1174.74 1437.94 1170.7C1438.13 1172.04 1438.7 1173.3 1439.59 1174.33C1440.47 1175.36 1441.64 1176.13 1442.94 1176.54C1443.87 1176.97 1444.88 1177.2 1445.9 1177.2C1446.92 1177.2 1447.93 1176.97 1448.86 1176.54C1448.86 1185.96 1446.13 1202.12 1446.13 1217.83C1445.64 1225.31 1445.64 1232.81 1446.13 1240.28C1448.39 1257.82 1452.35 1275.11 1457.96 1291.9C1449.21 1277.98 1442.62 1262.85 1438.39 1247.01C1437.01 1284.6 1439.76 1322.23 1446.58 1359.23L1432.94 1370.01H1429.75L1418.83 1378.09H1416.1C1408.83 1382.58 1392.9 1391.55 1389.72 1392.9C1384.77 1393.9 1379.66 1393.9 1374.71 1392.9C1367.88 1392.9 1364.7 1396.94 1360.15 1401.43C1355.6 1405.92 1341.96 1404.57 1337.41 1401.43L1314.66 1386.17L1305.56 1379.43C1313.75 1377.19 1320.58 1372.7 1321.94 1365.97C1322.23 1361.77 1320.93 1357.61 1318.3 1354.3L1289.64 1338.59C1310.57 1336.34 1314.66 1340.83 1323.76 1332.75C1332.86 1324.67 1350.14 1309.86 1363.34 1299.08C1376.53 1288.31 1373.34 1267.66 1376.07 1254.19C1376.07 1205.27 1330.58 1230.85 1330.58 1230.85L1326.49 1243.42C1326.49 1245.67 1318.3 1247.46 1316.94 1246.56C1321.66 1248.66 1325.88 1251.73 1329.29 1255.58C1332.7 1259.43 1335.22 1263.96 1336.69 1268.87C1338.16 1273.77 1338.54 1278.93 1337.8 1283.99C1337.06 1289.05 1335.22 1293.89 1332.4 1298.19C1332.4 1298.19 1347.87 1270.35 1318.3 1261.83C1306.65 1258.79 1295.81 1253.28 1286.54 1245.68C1277.26 1238.08 1269.79 1228.58 1264.62 1217.83C1253.25 1203.02 1243.7 1220.98 1234.14 1223.67C1226.46 1226.14 1218.18 1226.14 1210.49 1223.67C1206.65 1223.01 1203.03 1221.44 1199.94 1219.09C1196.85 1216.75 1194.38 1213.7 1192.75 1210.2C1190.69 1205.7 1189.75 1200.77 1190.02 1195.84C1187.25 1199.2 1185.74 1203.4 1185.74 1207.73C1185.74 1212.07 1187.25 1216.27 1190.02 1219.63C1197.64 1233.88 1203.59 1248.94 1207.76 1264.52C1218.27 1294.1 1235.19 1321.06 1257.34 1343.52L1261.89 1348.01C1259.57 1349.09 1257.52 1350.65 1255.87 1352.59C1254.22 1354.53 1253.02 1356.79 1252.34 1359.23C1252.13 1363.54 1253.23 1367.81 1255.5 1371.49C1257.77 1375.17 1261.11 1378.09 1265.08 1379.88C1257.9 1382.92 1250.92 1386.37 1244.15 1390.21C1236.87 1395.15 1232.32 1399.19 1231.41 1403.23C1230.5 1407.27 1235.51 1409.96 1243.7 1403.23L1265.53 1394.7C1268.34 1393.8 1271.37 1393.8 1274.18 1394.7C1274.18 1394.7 1241.42 1409.06 1235.96 1412.2C1233.13 1413.29 1230.7 1415.21 1228.99 1417.69C1227.29 1420.18 1226.39 1423.12 1226.41 1426.12C1226.6 1426.91 1226.97 1427.64 1227.48 1428.27C1228 1428.9 1228.66 1429.41 1229.4 1429.76C1230.14 1430.1 1230.96 1430.28 1231.78 1430.27C1232.6 1430.26 1233.41 1430.07 1234.14 1429.71L1259.62 1420.28C1267.35 1417.59 1265.99 1420.28 1269.17 1420.28L1230.96 1436.89C1229.64 1437.89 1228.58 1439.18 1227.87 1440.67C1227.16 1442.15 1226.81 1443.78 1226.87 1445.42C1226.86 1446.33 1227.08 1447.22 1227.52 1448.02C1227.96 1448.82 1228.59 1449.49 1229.36 1449.98C1230.13 1450.48 1231.01 1450.77 1231.93 1450.83C1232.85 1450.9 1233.76 1450.74 1234.6 1450.36L1258.25 1440.03C1259.59 1439.36 1261.07 1439.01 1262.58 1439.01C1264.08 1439.01 1265.56 1439.36 1266.9 1440.03C1266.9 1440.03 1236.42 1453.5 1235.51 1454.4C1235.3 1454.9 1235.19 1455.43 1235.19 1455.97C1235.19 1456.51 1235.3 1457.04 1235.51 1457.54L1181.83 1438.69L1172.28 1491.66H1246.43C1246.43 1491.66 1215.04 1658.64 1191.84 1788.82C1197.64 1807.07 1199.01 1826.41 1195.85 1845.27C1192.69 1864.14 1185.09 1882.02 1173.64 1897.45" fill="#333333"/>
    <path d="M809.723 1258.68C809.723 1258.68 812.907 1298.63 827.464 1305.82C842.021 1313 853.848 1333.2 876.138 1322.42C876.138 1322.42 957.565 1247.01 957.565 1215.59C950.382 1210.83 944.955 1203.9 942.099 1195.84C948.922 1209.75 962.569 1217.38 971.212 1209.75C991.228 1192.25 991.228 1189.1 991.228 1189.1C996.589 1189.35 1001.9 1187.98 1006.45 1185.18C1011 1182.37 1014.58 1178.26 1016.7 1173.39C1016.56 1171.57 1016.04 1169.79 1015.18 1168.17C1014.32 1166.55 1013.14 1165.12 1011.7 1163.97C1024.89 1172.95 1030.35 1154.99 1030.35 1154.99C1033.86 1153.2 1036.72 1150.37 1038.54 1146.91V1144.67C1051.6 1145.68 1064.69 1143.03 1076.29 1137.03C1076.29 1137.03 1076.29 1133.89 1076.29 1132.55C1076.29 1131.2 1069.02 1128.06 1069.02 1128.06C1069.02 1128.06 1019.89 1131.2 1016.7 1131.65C1005.78 1134.34 1011.24 1143.77 1010.79 1150.05C1011 1153.76 1009.87 1157.41 1007.6 1160.38C1009.14 1157.95 1009.95 1155.15 1009.95 1152.3C1009.95 1149.44 1009.14 1146.64 1007.6 1144.22C1004.87 1137.93 999.871 1140.18 1001.69 1136.14C1003.51 1132.1 1007.15 1127.61 1018.52 1125.81C1029.89 1124.02 1038.08 1108.75 1038.99 1097.08C1038.99 1093.94 1038.99 1092.59 1036.26 1091.7C1033.53 1090.8 1019.43 1096.19 1015.34 1098.88C1008.56 1101.56 1001.56 1103.66 994.412 1105.16C999.338 1104.01 1004.08 1102.19 1008.51 1099.78C1016.32 1094.74 1024.72 1090.66 1033.53 1087.66C1037.63 1087.66 1052.18 1084.51 1056.73 1084.51C1081.3 1076.43 1069.47 1066.56 1064.01 1066.11C1058.55 1065.66 1035.35 1071.05 1031.71 1071.05C1013.43 1077.75 995.511 1085.39 978.036 1093.94C969.006 1106.27 961.948 1119.9 957.11 1134.34C957.11 1140.18 948.467 1158.58 948.467 1158.58C936.185 1155.89 929.816 1167.56 925.267 1173.39C920.718 1179.23 895.699 1210.2 891.605 1214.69C879.599 1223.53 867.149 1231.77 854.303 1239.38C851.931 1243.08 850.38 1247.23 849.753 1251.56C849.125 1255.9 849.436 1260.31 850.664 1264.52C848.279 1261.51 846.594 1258.02 845.729 1254.3C844.865 1250.57 844.841 1246.71 845.66 1242.97C847.151 1237.99 847.151 1232.69 845.66 1227.71L839.291 1218.73L834.287 1212.9C834.287 1212.9 807.448 1195.84 811.997 1257.78" fill="#333333"/>
    <path d="M965.753 1399.18C965.753 1408.16 965.753 1418.49 968.482 1429.71C940.279 1433.3 912.985 1438.24 891.149 1442.28C877.431 1452.98 862.076 1461.47 845.659 1467.42C845.659 1474.6 849.299 1479.98 852.028 1479.98C854.757 1479.98 911.62 1479.98 973.486 1474.15L982.129 1569.76C987.052 1591.4 989.041 1613.59 988.043 1635.75C942.576 1574.56 876.691 1531.17 801.989 1513.2C788.797 1513.2 780.609 1513.2 778.334 1533.4C777.431 1549.85 777.431 1566.33 778.334 1582.78C778.334 1596.25 786.067 1619.14 795.165 1622.28C801.608 1623.68 808.283 1623.68 814.726 1622.28C809.133 1624.75 803.8 1627.76 798.805 1631.26C790.899 1635.54 783.939 1641.34 778.334 1648.32C773.785 1655.95 795.165 1650.56 795.165 1650.56L806.538 1654.6C806.538 1654.6 806.538 1669.86 841.565 1651.91C855.994 1642.68 871.216 1634.72 887.055 1628.12C879.805 1631.71 873.073 1636.23 867.04 1641.58C855.667 1650.56 847.934 1658.19 837.016 1666.72C815.708 1679.11 792.738 1688.48 768.781 1694.55C773.33 1699.49 783.793 1694.55 783.793 1694.55C783.793 1753.81 874.773 1704.43 874.773 1704.43C800.624 1764.13 771.056 1704.43 752.86 1729.12C838.836 1786.57 932.545 1684.23 951.196 1665.38C957.416 1658.83 965.091 1653.8 973.617 1650.69C982.143 1647.57 991.286 1646.45 1000.33 1647.42C1000.33 1647.42 1000.33 1669.86 997.596 1698.14C1005.33 1783.88 1011.7 1854.81 1012.61 1864.68C1015.34 1892.51 1015.34 1902.84 1005.33 1909.57C999.64 1913.05 992.949 1914.58 986.29 1913.93C979.631 1913.28 973.373 1910.49 968.482 1905.98C959.925 1900.05 952.134 1893.12 945.282 1885.33C937.053 1875.79 929.885 1865.41 923.902 1854.36C927.852 1857.22 932.336 1859.29 937.097 1860.45C941.859 1861.61 946.804 1861.82 951.651 1861.09C953.774 1860.56 955.779 1859.65 957.565 1858.4L961.659 1855.25L957.11 1852.56H954.835C939.008 1841.25 925.937 1826.59 916.573 1809.66C907.208 1792.74 901.787 1773.96 900.702 1754.7C901.584 1764.98 904.879 1774.92 910.328 1783.72C915.776 1792.53 923.227 1799.96 932.09 1805.43C973.486 1753.81 988.953 1715.65 967.118 1691.41C957.565 1680.19 921.628 1699.94 899.792 1714.75C877.957 1729.57 867.949 1737.65 842.475 1759.64C817.001 1781.64 772.42 1824.28 772.42 1824.28C772.42 1824.28 823.824 1757.4 796.53 1760.54C779.244 1768.62 769.691 1794.66 755.134 1820.24C740.577 1845.83 743.762 1848.97 721.472 1859.74C721.472 1907.33 812.452 1853.91 844.75 1821.59C858.804 1810.5 869.633 1795.95 876.138 1779.39V1783.88C872.612 1793.74 870.32 1803.99 869.314 1814.41C863.765 1819.8 857.668 1824.61 851.118 1828.77L847.024 1831.91C810.754 1860.02 771.565 1884.24 730.115 1904.18C708.734 1913.16 730.115 1949.07 730.115 1949.07C726.021 1973.31 761.048 1997.55 761.048 1997.55C766.425 1999.09 772.066 1999.53 777.621 1998.84C783.177 1998.14 788.528 1996.33 793.346 1993.51C818.42 1996.26 843.619 1989.53 863.855 1974.66C885.823 1962 906.806 1947.75 926.632 1932.01C919.9 1925.26 911.636 1920.18 902.522 1917.2C893.853 1915.13 884.807 1915.13 876.138 1917.2C847.623 1924.62 820.774 1937.26 796.985 1954.46C796.985 1954.46 833.832 1921.69 867.04 1886.68C876.593 1876.35 867.04 1853.91 867.04 1831.91C868.368 1854.16 875.583 1875.67 887.965 1894.31L896.153 1905.53V1892.06C894.621 1880.74 894.621 1869.27 896.153 1857.95C903.501 1881.92 914.548 1904.63 928.906 1925.28C936.295 1935.24 945.194 1944.03 955.29 1951.32C975.306 1966.58 1005.78 1987.23 1027.16 2001.14L1050.82 2016.41H1053.09C1053.09 2016.41 1105.41 1963.44 1131.34 1932.01C1154.9 1902.11 1167.7 1865.31 1167.73 1827.42C1172.03 1838.09 1174.94 1849.25 1176.37 1860.64V1874.11L1181.83 1861.54C1189.3 1841.46 1191.49 1819.84 1188.2 1798.7C1183.27 1767.53 1167.12 1739.16 1142.71 1718.79L1134.98 1711.61V1721.94C1139.01 1741.43 1138.61 1761.57 1133.81 1780.89C1129.01 1800.22 1119.93 1818.26 1107.23 1833.71L1103.59 1837.3H1108.14C1114.35 1839.06 1120.96 1838.88 1127.07 1836.79C1133.17 1834.7 1138.48 1830.8 1142.25 1825.63C1136.61 1847.92 1125.87 1868.65 1110.87 1886.23C1107.13 1891.69 1101.68 1895.79 1095.35 1897.9C1089.02 1900.01 1082.17 1900.01 1075.84 1897.9C1064.92 1895.65 1062.65 1885.33 1059.01 1857.5C1056.73 1839.09 1024.89 1614.2 1003.96 1468.31C1066.74 1459.78 1126.79 1446.32 1126.79 1446.32C1126.79 1446.32 1131.34 1439.58 1130.43 1431.95C1129.52 1424.32 1126.33 1418.04 1123.6 1418.49C1120.87 1418.94 1061.28 1418.49 998.051 1424.32L993.957 1395.59H1000.33C993.957 1395.59 984.859 1395.59 977.125 1395.59C973.064 1395.48 969.026 1396.24 965.298 1397.84" fill="#333333"/>
    <path d="M598.194 1934.26C601.076 1914.19 601.838 1893.88 600.468 1873.66C600.308 1896.13 594.023 1918.15 582.272 1937.4C575.984 1953.5 571.41 1970.2 568.625 1987.23C568.625 1987.23 573.174 1997.55 590.005 1993.06C588.403 1972.95 591.84 1952.75 600.013 1934.26" fill="#333333"/>
    <path d="M871.589 1362.82C871.589 1362.82 834.287 1378.09 821.55 1386.17C813.407 1391.15 806.354 1397.68 800.808 1405.39C795.261 1413.1 791.332 1421.83 789.252 1431.06C789.252 1445.87 786.068 1460.68 822.46 1448.11C888.875 1425.22 887.511 1420.73 887.511 1420.73C877.503 1413.55 887.511 1365.52 887.511 1365.52L869.77 1362.38" fill="#333333"/>
    <path d="M1355.15 347.44H1527.1H1527.55L1488.89 512.631V513.528V513.079V513.528L1489.34 512.631L1595.79 380.209H1596.24L1703.6 513.079L1664.48 347.44H1836.89L1681.31 274.271L1789.12 141.4L1634 215.467L1596.24 49.3779L1558.49 215.018L1403.37 140.951H1402.91L1510.72 273.822V274.271L1355.15 347.44Z" fill="#333333"/>
    <path d="M1529.37 2590.98C1411.26 2678.4 1267.6 2725.65 1119.96 2725.65C972.324 2725.65 828.666 2678.4 710.554 2590.98C592.998 2679.44 448.973 2726.81 301.144 2725.65H267.936C308.566 2770.03 352.842 2811.01 400.312 2848.2C515.031 2833.81 623.74 2789.32 715.103 2719.37C833.215 2806.78 976.873 2854.03 1124.51 2854.03C1272.15 2854.03 1415.81 2806.78 1533.92 2719.37C1625.33 2789.25 1734.02 2833.73 1848.71 2848.2C1894.17 2810.31 1936.46 2768.88 1975.18 2724.3H1942.42C1794.61 2725.4 1650.6 2678.03 1533.01 2589.64" fill="#333333"/>
    <path d="M801.989 972.741C796.53 972.741 793.801 968.701 786.523 970.497C779.934 971.963 773.096 971.963 766.507 970.497C770.752 969.437 774.869 967.932 778.789 966.008C783.753 963.126 789.407 961.607 795.166 961.607C800.925 961.607 806.579 963.126 811.542 966.008C811.542 966.008 806.993 972.292 801.534 971.394L801.989 972.741ZM797.44 983.514C796.259 984.389 794.823 984.861 793.346 984.861C791.87 984.861 790.433 984.389 789.252 983.514C784.703 983.514 789.252 976.781 777.88 975.434C780.026 973.844 782.517 972.768 785.158 972.292C790.115 970.296 795.667 970.296 800.625 972.292C800.625 972.292 800.625 980.372 796.985 981.719L797.44 983.514ZM787.432 923.363C782.621 926.284 777.151 927.981 771.511 928.301C764.438 933.774 758.818 940.86 755.135 948.95C753.865 953.203 751.517 957.066 748.311 960.172C746.096 962.545 743.479 964.52 740.578 966.008C741.109 968.373 741.109 970.825 740.578 973.19C737.898 978.53 734.535 983.509 730.57 988.003C728.538 989.659 726.999 991.827 726.117 994.278C725.236 996.729 725.046 999.37 725.566 1001.92C728.295 1005.96 725.566 1007.31 725.566 1012.69C725.155 1018.22 725.155 1023.77 725.566 1029.3C725.865 1035.17 724.273 1040.99 721.017 1045.91C720.052 1047.46 719.541 1049.25 719.541 1051.07C719.541 1052.89 720.052 1054.68 721.017 1056.23C719.18 1057.77 716.996 1058.85 714.648 1059.38C721.927 1076.43 741.942 1074.19 750.131 1073.29C756.038 1072.91 761.964 1072.91 767.872 1073.29C775.951 1074.93 784.189 1075.69 792.436 1075.54C809.268 1072.39 804.264 1056.68 803.354 1051.3C802.444 1045.91 792.436 1038.73 792.436 1038.73C797.508 1040.78 802.887 1041.99 808.358 1042.32V1038.28H801.534C796.233 1037.93 790.914 1037.93 785.613 1038.28C794.069 1037.2 802.631 1037.2 811.087 1038.28L809.723 1025.71C830.648 1025.71 826.554 1014.04 823.824 1007.31C820.858 1000.77 818.424 994.019 816.546 987.105C816.546 981.27 813.362 976.332 813.362 975.434C813.963 972.622 813.963 969.718 813.362 966.906C812.36 954.956 812.36 942.944 813.362 930.994C809.499 930.605 805.771 929.378 802.444 927.403C798.22 929.124 793.477 929.124 789.252 927.403" fill="#333333"/>
    <path d="M1529.37 2333.77C1411.41 2421.53 1267.7 2469 1119.96 2469C972.232 2469 828.517 2421.53 710.554 2333.77C592.966 2422.16 448.962 2469.53 301.144 2468.44C227.695 2468.55 154.717 2456.88 85.0664 2433.87C107.252 2485.45 133.41 2535.27 163.309 2582.9C208.2 2592.12 253.928 2596.78 299.779 2596.82C447.603 2597.95 591.617 2550.58 709.19 2462.15C827.153 2549.91 970.867 2597.38 1118.6 2597.38C1266.33 2597.38 1410.05 2549.91 1528.01 2462.15C1645.6 2550.55 1789.6 2597.91 1937.42 2596.82C1983.27 2596.77 2029 2592.11 2073.89 2582.9C2103.64 2535.26 2129.64 2485.44 2151.68 2433.87C2082.01 2456.79 2009.04 2468.46 1935.6 2468.44C1787.79 2469.5 1643.8 2422.13 1526.19 2333.77" fill="#333333"/>
    <path d="M656.421 1039.18C656.227 1035.89 656.227 1032.59 656.421 1029.3C657.884 1022.84 660.339 1016.63 663.7 1010.9C652.327 1048.6 670.068 1061.62 667.339 1059.83C665.803 1055.51 665.332 1050.9 665.965 1046.37C666.598 1041.84 668.316 1037.53 670.978 1033.79C670.978 1033.79 668.249 1045.91 670.978 1049.05C671.566 1042.08 674.083 1035.4 678.257 1029.75C682.791 1024.46 685.917 1018.13 687.355 1011.35C688.366 1005.38 690.363 999.616 693.268 994.288C691.347 999.319 690.272 1004.63 690.084 1010C690.957 1013.99 690.957 1018.12 690.084 1022.12C686.445 1032.89 679.166 1053.09 695.088 1064.31C695.088 1064.31 686.445 1047.26 695.088 1036.48C695.088 1036.48 695.088 1053.54 702.821 1057.13C700.456 1049.37 700.456 1041.1 702.821 1033.34C705.397 1027.39 706.639 1020.96 706.46 1014.49C708.179 1020.81 708.179 1027.47 706.46 1033.79C705.039 1036.94 704.541 1040.41 705.023 1043.83C705.506 1047.24 706.95 1050.45 709.19 1053.09C708.214 1050.87 707.909 1048.42 708.313 1046.03C708.716 1043.64 709.811 1041.42 711.464 1039.63C714.435 1036.2 716.623 1032.18 717.879 1027.84C719.135 1023.5 719.429 1018.95 718.743 1014.49C716.013 1003.27 708.28 998.328 721.927 980.372C720.798 987.21 720.798 994.183 721.927 1001.02C721.212 998.07 721.212 994.994 721.927 992.043C724.656 981.27 727.841 984.412 724.656 972.741C721.472 961.07 730.57 958.377 730.57 958.377C730.108 960.143 730.108 961.997 730.57 963.763C730.283 965.849 730.283 967.963 730.57 970.048C730.823 972.585 730.823 975.141 730.57 977.679C731.923 971.465 731.923 965.039 730.57 958.826C730.458 953.373 731.708 947.977 734.209 943.115C733.703 946.839 733.703 950.613 734.209 954.337C734.209 959.723 734.209 964.212 734.209 968.701C734.209 973.19 738.303 968.701 738.758 957.03C739.213 945.359 742.398 944.461 741.488 936.83C746.492 942.666 741.488 957.03 741.488 957.03C748.766 948.052 745.127 944.012 744.217 936.381C743.307 928.75 751.041 924.71 751.041 924.71C751.041 924.71 751.041 935.483 751.041 935.932C751.041 936.381 761.048 931.443 761.048 931.443C761.048 931.443 773.786 928.75 773.786 917.977C773.786 917.977 779.245 930.097 787.433 917.977C787.508 919.182 787.829 920.359 788.376 921.439C788.923 922.519 789.685 923.479 790.617 924.261C801.08 927.852 796.531 908.999 796.531 908.999C798.318 910.201 799.861 911.724 801.08 913.488C806.538 921.119 803.354 907.652 803.354 907.652C796.076 894.186 766.507 887.901 752.86 886.555C737.722 885.328 722.508 885.328 707.37 886.555C691.378 887.407 676.286 894.132 665.065 905.408C649.356 923.88 639.542 946.528 636.861 970.497C627.763 1010 617.755 1040.97 617.755 1046.36C617.755 1072.84 643.229 1058.48 645.504 1039.18" fill="#333333"/>
    <path d="M880.232 1496.14C850.208 1481.78 825.189 1473.25 825.189 1473.25C779.699 1484.47 807.902 1501.98 814.271 1505.12C843.506 1517.82 871.65 1532.83 898.428 1550.01C932.09 1571.11 978.945 1601.63 980.31 1570.66C954.071 1537.59 919.367 1512.02 879.777 1496.59" fill="#333333"/>
    <path d="M576.814 482.106C528.273 482.296 481.461 464.332 445.803 431.831C469.523 461.921 500.62 485.552 536.159 500.498C571.699 515.443 610.511 521.21 648.935 517.253C687.359 513.297 724.128 499.748 755.776 477.884C787.423 456.021 812.906 426.563 829.82 392.289C846.735 358.016 854.524 320.055 852.452 281.988C850.381 243.921 838.518 207.002 817.982 174.712C797.447 142.423 768.914 115.827 735.077 97.4326C701.239 79.0384 663.211 69.4522 624.579 69.5781C590.332 69.3157 556.468 76.6881 525.512 91.1452C494.557 105.602 467.309 126.771 445.803 153.071C468.799 132.258 496.591 117.291 526.77 109.465C556.95 101.639 588.608 101.191 619.002 108.159C649.397 115.128 677.612 129.302 701.204 149.456C724.796 169.61 743.054 195.134 754.396 223.82C765.738 252.505 769.823 283.487 766.297 314.082C762.771 344.676 751.74 373.961 734.16 399.401C716.58 424.841 692.98 445.668 665.404 460.079C637.828 474.49 607.108 482.051 575.904 482.106" fill="#333333"/>
    <path d="M662.335 1153.64L646.868 1146.91C636.688 1143.67 627.991 1137 622.303 1128.06C618.664 1119.53 628.672 1107.86 633.221 1104.27C637.77 1100.67 618.209 1120.43 662.335 1153.19V1153.64ZM700.091 1317.04C715.558 1353.85 743.307 1346.22 743.307 1346.22C691.448 1370.46 673.252 1460.68 673.252 1460.68C677.801 1386.62 712.374 1366.42 701.456 1317.49L700.091 1317.04ZM640.499 1112.79C640.499 1098.88 650.962 1095.29 657.331 1092.59C648.559 1094.3 640.489 1098.51 634.131 1104.71C628.101 1109.66 622.474 1115.06 617.3 1120.87C597.48 1143.14 582.052 1168.87 571.81 1196.74C559.646 1233.91 552.906 1272.6 551.794 1311.65C551.794 1332.75 544.97 1407.71 543.151 1455.75C543.151 1487.17 540.421 1507.37 540.421 1522.18C540.421 1536.99 536.782 1968.38 536.782 1968.38L544.97 1869.17L568.625 1629.46C568.625 1629.46 579.998 1539.69 582.272 1480.43C584.547 1421.18 589.096 1313.45 591.37 1297.74C594.269 1274.65 601.033 1252.2 611.386 1231.3L600.013 1590.41C600.013 1590.41 602.743 1668.07 603.653 1696.35C603.653 1696.35 600.468 1870.97 600.468 1878.6L623.213 1998C628.261 2000.19 633.856 2000.85 639.285 1999.89C644.713 1998.93 649.729 1996.4 653.692 1992.62L640.045 1956.26L620.029 1849.87C623.995 1849.18 627.649 1847.3 630.492 1844.48C634.187 1839.86 636.825 1834.5 638.225 1828.77C649.374 1734.73 665.775 1641.37 687.354 1549.11C699.637 1512.75 704.186 1418.94 796.075 1363.27C787.886 1356.11 777.777 1351.44 766.962 1349.81C748.766 1346.67 753.315 1345.32 753.315 1345.32C760.138 1334.1 741.032 1307.61 741.032 1307.61C726.356 1285.24 708.938 1264.73 689.174 1246.56C666.429 1220.53 689.174 1212.45 689.174 1212.45C692.618 1226.58 699.486 1239.67 709.189 1250.6C718.287 1263.17 742.852 1307.61 742.852 1307.61C746.81 1265.7 733.901 1223.94 706.915 1191.35C697.195 1180.04 686.869 1169.25 675.982 1159.03L665.064 1148.71C660.06 1144.22 649.597 1133.89 648.688 1132.55C647.778 1131.2 648.688 1130.3 648.688 1128.95C653.99 1133.78 660.161 1137.59 666.884 1140.18C702.821 1155.44 738.303 1162.62 757.864 1147.36C760.437 1144.28 762.198 1140.62 762.992 1136.7C763.786 1132.78 763.587 1128.74 762.413 1124.91C759.896 1121.79 758.308 1118.04 757.826 1114.07C757.344 1110.11 757.987 1106.09 759.683 1102.47C759.683 1097.98 762.868 1093.04 750.585 1092.15C745.295 1091.87 740.125 1090.49 735.419 1088.09C730.713 1085.69 726.579 1082.33 723.291 1078.23C721.896 1074.62 720.979 1070.85 720.562 1067.01C717.872 1067.65 715.064 1067.65 712.374 1067.01C712.374 1067.01 706.915 1073.74 702.366 1071.5C699.271 1073.07 695.84 1073.89 692.358 1073.89C688.876 1073.89 685.445 1073.07 682.35 1071.5L667.339 1075.99C666.764 1083.39 664.592 1090.58 660.97 1097.08L644.139 1117.28" fill="#333333"/>
    <path d="M1121.33 2981.96C973.506 2983.09 829.491 2935.72 711.919 2847.3C656.905 2888.89 595.466 2921.48 529.959 2943.81C571.392 2969.04 614.389 2991.68 658.696 3011.59C676.437 3000.82 694.178 2988.7 710.099 2976.13C827.979 3063.72 971.956 3110.29 1119.51 3108.55C1267.06 3110.26 1411.02 3063.69 1528.92 2976.13C1545.43 2988.81 1562.59 3000.64 1580.32 3011.59C1624.64 2991.69 1667.63 2969.05 1709.06 2943.81C1643.53 2921.54 1582.08 2888.95 1527.1 2847.3C1409.5 2935.66 1265.5 2983.03 1117.69 2981.96" fill="#333333"/>
    <path d="M1449.77 949.847C1439.71 951.831 1429.35 951.831 1419.29 949.847C1409.1 948.156 1399.79 943.09 1392.9 935.483C1392.9 931.443 1392.9 930.545 1395.18 930.994C1397.45 931.443 1399.73 935.932 1401.55 939.074C1406.16 944.426 1412.37 948.198 1419.29 949.847C1419.19 945.823 1417.56 941.981 1414.74 939.074C1417.78 942.257 1421.51 944.713 1425.66 946.256C1458.87 953.439 1441.12 938.625 1441.12 938.625C1465.23 949.399 1457.96 961.967 1464.32 975.883C1462.03 970.77 1460.05 965.523 1458.41 960.172C1453.86 951.643 1449.31 950.745 1449.31 950.745L1449.77 949.847ZM1403.82 979.025C1400.92 979.126 1398.06 978.342 1395.63 976.781C1404.05 970.881 1413.99 967.457 1424.29 966.905C1428.08 966.99 1431.8 967.971 1435.12 969.768C1438.45 971.565 1441.29 974.124 1443.4 977.23C1437.18 974.467 1430.43 973.038 1423.61 973.038C1416.79 973.038 1410.04 974.467 1403.82 977.23V979.025ZM1428.39 977.23C1424.75 980.821 1428.39 986.656 1418.83 987.554C1409.28 988.452 1408.83 976.781 1408.83 976.781C1414.09 974.303 1419.82 972.927 1425.66 972.741C1432.48 972.741 1434.76 975.434 1434.76 975.434C1433.76 974.958 1432.67 974.71 1431.57 974.71C1430.47 974.71 1429.38 974.958 1428.39 975.434V977.23ZM1492.98 1039.63C1490.25 1032.89 1489.8 1017.18 1487.07 1007.31C1483.9 999.692 1479.61 992.582 1474.33 986.207C1479.19 991.547 1484.87 996.092 1491.16 999.674C1500.14 1005.17 1506.65 1013.84 1509.36 1023.91C1508.33 1022.4 1506.88 1021.22 1505.19 1020.5C1503.49 1019.78 1501.62 1019.57 1499.81 1019.87C1494.8 1019.87 1492.07 1030.65 1493.44 1040.07C1503.45 1051.75 1506.18 1036.03 1506.18 1036.03C1507.11 1037.43 1507.61 1039.07 1507.61 1040.75C1507.61 1042.42 1507.11 1044.06 1506.18 1045.46C1506.18 1045.46 1512.54 1052.19 1520.28 1045.46C1528.01 1038.73 1525.74 1018.53 1502.99 1000.57C1480.25 982.616 1480.7 971.843 1480.7 971.843C1485.71 978.464 1492.48 983.59 1500.26 986.656C1505.3 988.219 1509.94 990.831 1513.86 994.316C1517.78 997.801 1520.9 1002.08 1523.01 1006.86C1523.01 1006.86 1523.01 1001.92 1509.36 1000.12C1509.36 1000.12 1536.2 1027.95 1528.01 1045.01C1531.24 1042.97 1533.85 1040.09 1535.53 1036.68C1537.22 1033.28 1537.92 1029.48 1537.56 1025.71C1537.56 1025.71 1546.21 1032.89 1546.21 1039.63C1546.21 1039.63 1554.85 1027.95 1535.74 1008.2C1530.37 1002.82 1526.45 996.177 1524.37 988.901C1521.27 984.153 1517.43 979.912 1513 976.332C1507.88 969.703 1504.3 962.038 1502.54 953.887C1504.58 957.986 1507.94 961.301 1512.09 963.314C1513.68 954.621 1512.4 945.653 1508.45 937.728C1512.27 941.899 1515.21 946.783 1517.09 952.092C1519.14 959.016 1522.37 965.544 1526.65 971.394C1529.09 974.464 1530.85 978.015 1531.79 981.809C1532.73 985.603 1532.84 989.551 1532.1 993.39C1532.1 1005.06 1541.2 1008.2 1543.48 1010.45C1547.71 1013.56 1551.12 1017.63 1553.42 1022.32C1555.72 1027.01 1556.83 1032.17 1556.67 1037.38C1556.67 1037.38 1563.49 1027.51 1552.57 1010C1541.66 992.492 1546.21 988.003 1547.12 986.207C1547.72 989.549 1549.11 992.707 1551.16 995.433C1553.21 998.158 1555.88 1000.38 1558.94 1001.92C1558.94 1001.92 1561.22 995.634 1545.75 977.23C1530.01 962.036 1520.73 941.485 1519.82 919.772C1519.82 919.772 1519.82 927.852 1533.47 935.034C1531.04 929.311 1528.92 923.468 1527.1 917.528C1527.1 910.794 1522.1 885.656 1481.61 878.025C1456.15 878.579 1431.02 883.753 1407.46 893.288C1400.46 897.771 1394.69 903.881 1390.64 911.082C1386.6 918.282 1384.41 926.353 1384.26 934.585C1386.93 942.711 1390.76 950.42 1395.63 957.479C1395.63 957.479 1395.63 961.519 1395.63 963.763C1395.74 965.707 1395.74 967.655 1395.63 969.599C1395.63 971.843 1392.45 977.679 1395.63 979.474C1396.42 981.342 1396.42 983.441 1395.63 985.31C1395.63 992.043 1388.36 1017.63 1388.36 1022.12C1388.36 1026.61 1388.36 1032.89 1397.91 1031.99H1405.19C1405.46 1035.73 1405.46 1039.48 1405.19 1043.22C1406.64 1042.06 1408.32 1041.23 1410.13 1040.76C1411.93 1040.3 1413.81 1040.22 1415.65 1040.52H1431.57L1417.47 1043.67C1414.76 1044.13 1411.99 1044.13 1409.28 1043.67V1049.05C1415.68 1048.66 1421.91 1046.81 1427.48 1043.67C1425.71 1046.9 1423.02 1049.55 1419.74 1051.3C1414.29 1051.3 1411.56 1051.3 1409.28 1048.6C1411 1049.3 1412.48 1050.48 1413.53 1052C1414.58 1053.51 1415.16 1055.3 1415.19 1057.13C1415.19 1063.87 1412.01 1074.19 1422.93 1075.09H1441.12C1445.96 1075.68 1450.85 1075.68 1455.68 1075.09C1461.59 1075.09 1491.16 1060.72 1496.17 1045.91" fill="#333333"/>
    <path d="M2037.95 2165.89H1835.98V2042.89H1631.73V2165.89H1427.48V2042.89H1223.23V2165.89H1018.98V2042.89H815.182V2165.89H610.931V2042.89H406.681V2165.89H202.431V2042.89H0.455078C3.20746 2125.06 15.2614 2206.66 36.3922 2286.19C121.25 2321.8 212.571 2339.98 304.783 2339.61C452.602 2340.7 596.605 2293.33 714.194 2204.94C831.799 2293.3 975.791 2340.67 1123.6 2339.61C1271.42 2340.67 1415.41 2293.3 1533.01 2204.94C1650.6 2293.33 1794.61 2340.7 1942.42 2339.61C2034.18 2339.82 2125.02 2321.65 2209.45 2286.19C2230.92 2206.55 2243.28 2124.79 2246.3 2042.44H2037.95V2165.89Z" fill="#333333"/>
    <path d="M693.723 1151.85C681.441 1149.6 685.08 1157.68 689.174 1161.72C722.677 1192.41 745.05 1233.09 752.86 1277.54C752.86 1277.54 781.519 1287.86 786.068 1247.46C787.261 1221.5 783.875 1195.52 776.06 1170.7C776.06 1170.7 779.244 1176.54 788.342 1199.43C795.892 1223.32 800.325 1248.05 801.535 1273.05C803.745 1265.6 804.968 1257.91 805.174 1250.15C805.174 1242.97 805.174 1234.89 805.174 1228.16C806.952 1211.62 805.719 1194.89 801.535 1178.78C799.192 1172.48 796.14 1166.46 792.437 1160.83L764.233 1122.22C763.021 1129.63 759.339 1136.42 753.77 1141.52C745.661 1147.98 736.031 1152.31 725.772 1154.12C715.513 1155.92 704.959 1155.14 695.088 1151.85" fill="#333333"/>
    <path d="M1456.14 1142.87C1468.3 1146.28 1480.81 1148.39 1493.44 1149.15C1505.68 1148.65 1517.66 1145.43 1528.47 1139.73C1536.11 1134.35 1542.86 1127.84 1548.48 1120.42C1551.21 1117.04 1553.65 1113.44 1555.76 1109.65C1555.83 1108.46 1555.83 1107.26 1555.76 1106.06C1555.76 1100.67 1555.76 1090.8 1542.57 1079.58C1536.99 1073.67 1532.53 1066.83 1529.37 1059.38C1527.33 1059.86 1525.19 1059.87 1523.14 1059.4C1521.09 1058.93 1519.17 1058 1517.55 1056.68C1515.53 1057.44 1513.33 1057.59 1511.22 1057.11C1509.11 1056.63 1507.2 1055.54 1505.72 1053.99C1502.99 1053.99 1496.62 1053.99 1493.89 1045.01C1497.08 1057.13 1471.6 1069.25 1462.5 1080.92C1453.41 1092.59 1449.31 1078.68 1444.76 1084.06C1440.21 1089.45 1447.95 1093.94 1447.95 1097.98C1447.81 1103.84 1447.35 1109.68 1446.58 1115.49C1446.58 1123.57 1442.03 1141.07 1454.77 1144.22" fill="#333333"/>
    <path d="M1633.09 1980.49C1633.09 1971.97 1627.63 1972.86 1618.54 1976.45C1609.44 1980.05 1599.43 1973.31 1592.15 1971.97C1584.87 1970.62 1583.96 1971.97 1577.59 1971.97C1572.49 1972.96 1567.23 1972.96 1562.13 1971.97C1543.48 1969.72 1545.3 1989.92 1545.3 1989.92C1546.04 1992.16 1547.11 1994.28 1548.48 1996.21C1552.02 1998.47 1555.85 2000.28 1559.85 2001.59C1562.13 2001.59 1559.85 2004.29 1563.49 2006.53C1567.13 2008.77 1587.15 2023.59 1600.34 2008.77C1603.52 2002.04 1585.78 1991.27 1587.6 1992.17C1592.94 1994.87 1597.72 1998.52 1601.7 2002.94C1607.16 2009.22 1615.81 2013.71 1621.26 2007.88C1626.72 2002.04 1607.62 1987.68 1607.62 1987.68C1612.95 1990.38 1617.73 1994.03 1621.72 1998.45C1627.63 2005.18 1632.18 2007.88 1634.46 1998.45C1631.52 1992.8 1627.32 1987.89 1622.17 1984.09C1625.31 1985.81 1628.22 1987.93 1630.82 1990.37C1636.28 1995.31 1640.83 1993.96 1639.46 1984.98C1637.65 1982.73 1635.5 1980.77 1633.09 1979.15" fill="#333333"/>
    <path d="M2989.15 1328.71L2951.39 1211.55H2790.36L2751.24 1328.71H2654.8L2829.02 854.684H2911.36L3084.22 1328.71H2989.15ZM2870.42 962.866L2814.92 1134.79H2926.37L2870.42 962.866Z" fill="#333333"/>
    <path d="M3442.23 1328.71L3402.65 1211.55H3243.44L3204.32 1328.71H3107.88L3282.11 854.684H3364.44L3539.12 1328.71H3442.23ZM3323.5 962.866L3266.18 1134.79H3377.63L3323.5 962.866Z" fill="#333333"/>
    <path d="M3840.72 1328.71L3730.64 1138.83H3685.15V1328.71H3594.17V854.684H3754.29C3824.35 854.684 3856.19 863.212 3884.85 889.697C3898.32 903.158 3908.77 919.269 3915.51 936.981C3922.25 954.693 3925.13 973.608 3923.97 992.492C3925.53 1024.48 3916.25 1056.07 3897.59 1082.27C3879.26 1106.11 3852.42 1122.16 3822.53 1127.16L3941.71 1330.51L3840.72 1328.71ZM3744.28 931.443H3684.69V1062.07H3744.28C3802.51 1062.07 3827.99 1041.87 3827.99 994.737C3827.99 947.603 3804.33 931.443 3744.28 931.443Z" fill="#333333"/>
    <path d="M4348.85 1328.71V1125.36H4101.84V1328.71H4010.86V854.684H4101.84V1044.56H4348.85V854.684H4439.83V1328.71H4348.85Z" fill="#333333"/>
    <path d="M4885.63 1303.57C4843.88 1326.45 4796.91 1338.45 4749.16 1338.45C4701.41 1338.45 4654.44 1326.45 4612.69 1303.57C4563.1 1269.91 4547.18 1230.4 4547.18 1143.32V854.684H4638.16V1148.71C4638.16 1219.18 4675.47 1254.19 4751.89 1254.19C4766.36 1255.87 4781.02 1254.28 4794.78 1249.54C4808.53 1244.8 4821.01 1237.03 4831.27 1226.82C4841.53 1216.61 4849.29 1204.23 4853.98 1190.62C4858.67 1177.01 4860.16 1162.52 4858.34 1148.26V854.684H4949.32V1143.32C4952.04 1230.4 4936.12 1269.01 4885.63 1303.57Z" fill="#333333"/>
    <path d="M5329.16 967.354C5290.27 948.108 5247.91 936.665 5204.51 933.687C5161.75 933.687 5134 950.745 5134 978.576C5134 1006.41 5145.83 1010.9 5179.49 1028.85C5231.12 1052.82 5279.55 1082.97 5323.7 1118.63C5335.03 1130.09 5343.95 1143.64 5349.96 1158.5C5355.97 1173.37 5358.95 1189.26 5358.73 1205.26C5358.73 1290.1 5295.95 1339.93 5189.96 1339.93C5175.65 1340.12 5161.36 1339.22 5147.2 1337.24C5111.88 1332.44 5077.79 1321.18 5046.66 1304.02L5015.28 1289.66L5053.94 1206.16C5075.88 1218.79 5098.68 1229.89 5122.18 1239.38C5144.34 1247.51 5167.69 1252.06 5191.32 1252.85C5233.63 1252.85 5261.38 1233.99 5261.38 1205.26C5261.38 1185.06 5250.46 1171.6 5219.07 1154.09L5144.92 1112.34C5059.86 1064.31 5033.47 1032.44 5033.47 980.82C5033.58 957.512 5040.19 934.683 5052.58 914.834C5062.11 901.099 5074.14 889.227 5088.06 879.82C5123.51 855.876 5166.26 844.773 5209.06 848.398C5239.83 847.977 5270.49 852.061 5300.04 860.518C5323.54 867.715 5346.36 876.875 5368.28 887.9L5329.16 967.354Z" fill="#333333"/>
    <path d="M2906.81 2002.04L2746.69 1777.6V2002.04H2655.71V1528.02H2746.69V1749.32L2897.26 1528.02H3002.8L2837.67 1758.74L3011.89 2002.49L2906.81 2002.04Z" fill="#333333"/>
    <path d="M3266.18 2013.26C3232.63 2015.08 3199.06 2010 3167.6 1998.34C3136.14 1986.68 3107.48 1968.69 3083.44 1945.52C3059.4 1922.34 3040.51 1894.49 3027.96 1863.73C3015.4 1832.97 3009.47 1799.97 3010.53 1766.82C3010.53 1700.04 3037.42 1635.98 3085.28 1588.76C3133.14 1541.53 3198.05 1515 3265.73 1515C3333.41 1515 3398.32 1541.53 3446.18 1588.76C3494.04 1635.98 3520.93 1700.04 3520.93 1766.82C3522.05 1799.91 3516.18 1832.86 3503.71 1863.59C3491.24 1894.32 3472.43 1922.15 3448.48 1945.32C3424.52 1968.5 3395.95 1986.5 3364.57 1998.2C3333.18 2009.89 3299.68 2015.02 3266.18 2013.26ZM3266.18 1599.39C3244.5 1599.59 3223.08 1604.15 3203.24 1612.79C3183.4 1621.42 3165.55 1633.96 3150.78 1649.62C3136.01 1665.29 3124.63 1683.76 3117.33 1703.91C3110.04 1724.06 3106.97 1745.47 3108.33 1766.82C3106.29 1788.47 3108.85 1810.29 3115.84 1830.9C3122.83 1851.51 3134.11 1870.46 3148.94 1886.53C3163.78 1902.59 3181.85 1915.43 3202 1924.21C3222.15 1932.99 3243.93 1937.53 3265.96 1937.53C3287.98 1937.53 3309.77 1932.99 3329.92 1924.21C3350.07 1915.43 3368.14 1902.59 3382.97 1886.53C3397.81 1870.46 3409.08 1851.51 3416.07 1830.9C3423.07 1810.29 3425.62 1788.47 3423.58 1766.82C3425.2 1745.36 3422.34 1723.8 3415.19 1703.47C3408.03 1683.13 3396.73 1664.46 3381.99 1648.61C3367.24 1632.75 3349.35 1620.04 3329.44 1611.27C3309.52 1602.49 3287.99 1597.84 3266.18 1597.59V1599.39Z" fill="#333333"/>
    <path d="M4014.49 2002.04V1654.15C4012.15 1677.56 4006.01 1700.45 3996.3 1721.94L3886.21 2002.04H3804.33L3703.8 1726.87C3694.85 1702.5 3688.74 1677.2 3685.6 1651.46V2002.04H3602.36V1528.02H3712.44L3840.72 1866.48C3845.81 1878.19 3849.04 1890.6 3850.28 1903.29C3851.15 1890.64 3854.07 1878.21 3858.92 1866.48L3994.02 1528.02H4104.11V2002.04H4014.49Z" fill="#333333"/>
    <path d="M4634.07 2002.04V1654.15C4631.73 1677.56 4625.59 1700.45 4615.87 1721.94L4505.79 2002.04H4423.45L4322.92 1726.87C4313.96 1702.5 4307.86 1677.2 4304.72 1651.46V2002.04H4221.47V1528.02H4331.56L4459.84 1866.48C4464.93 1878.19 4468.15 1890.6 4469.4 1903.29C4470.27 1890.64 4473.19 1878.21 4478.04 1866.48L4611.32 1528.02H4721.86V2002.04H4634.07Z" fill="#333333"/>
    <path d="M5169.03 1976.9C5127.27 1999.74 5080.31 2011.72 5032.56 2011.72C4984.82 2011.72 4937.85 1999.74 4896.09 1976.9C4846.51 1943.24 4830.59 1903.74 4830.59 1816.65V1528.02H4921.57V1822.04C4921.57 1892.51 4958.87 1927.53 5035.29 1927.53C5049.75 1929.27 5064.43 1927.74 5078.2 1923.05C5091.97 1918.37 5104.48 1910.65 5114.79 1900.48C5125.09 1890.32 5132.91 1877.97 5137.66 1864.38C5142.41 1850.79 5143.96 1836.31 5142.19 1822.04V1528.02H5233.17V1816.65C5235.45 1903.74 5219.53 1942.34 5169.03 1976.9Z" fill="#333333"/>
    <path d="M5661.69 2006.53L5455.62 1699.04C5455.62 1699.04 5451.07 1690.51 5445.61 1680.19C5443.94 1676.73 5441.96 1673.43 5439.7 1670.31C5436.91 1665.05 5434.77 1659.47 5433.33 1653.7V2001.59H5345.99V1528.02H5449.71L5651.23 1839.99C5653.07 1843.2 5654.74 1846.49 5656.23 1849.87L5660.78 1859.3L5665.33 1871.42L5669.88 1879.94V1528.02H5756.76V2006.53H5661.69Z" fill="#333333"/>
    <path d="M5875.49 2002.04V1528.02H6167.99V1604.78H5966.93V1721.94H6132.06V1798.7H5967.38V1923.49H6177.55V2000.25L5875.49 2002.04Z" fill="#333333"/>
  </g>
  <defs>
    <clipPath id="clip0_309_28">
      <rect width="6178" height="3109" fill="white"/>
    </clipPath>
  </defs>
</svg>
