<svg width="16" height="18" viewBox="0 0 16 18" fill="none" xmlns="http://www.w3.org/2000/svg">
  <path fill="currentColor" d="M8 7.31249H4.62143L13.2429 3.84257L9.71429 12.3258V8.99999C9.71429 8.06835 8.94643 7.31249 8 7.31249ZM6.28571 8.99999H8V10.6875V15.1875C8 15.7254 8.38571 16.1859 8.92143 16.2914C9.45714 16.3969 9.99286 16.1121 10.2 15.6129L15.3429 3.23788C15.5179 2.81952 15.4179 2.33788 15.0929 2.01796C14.7679 1.69804 14.2786 1.5996 13.8536 1.77186L1.28214 6.83436C0.775 7.03827 0.489286 7.56561 0.592857 8.09296C0.696429 8.6203 1.16786 8.99999 1.71429 8.99999H6.28571Z"/>
</svg>
