<svg width="14" height="14" viewBox="0 0 14 14" fill="none" xmlns="http://www.w3.org/2000/svg">
<path d="M12.6151 0C12.4785 0 12.3146 0.0546385 12.1507 0.109277L0.785859 5.35457C-0.525465 5.9556 -0.0883571 7.89526 1.30492 7.89526H6.11311V12.7034C6.11311 13.523 6.79609 13.9875 7.45175 13.9875C7.91618 13.9875 8.40793 13.7689 8.6538 13.2225L13.8991 1.85771C14.2816 0.956174 13.5166 0 12.6151 0ZM13.1068 1.50256L7.86154 12.84C7.77958 13.0313 7.64299 13.1406 7.45175 13.1406C7.28784 13.1406 6.98733 13.0313 6.98733 12.7034V7.02105H1.30492C1.00441 7.02105 0.922455 6.77517 0.895136 6.6659C0.867816 6.5293 0.867816 6.28343 1.16833 6.14683L12.4785 0.928854C12.5331 0.901535 12.5878 0.874216 12.6151 0.874216C12.779 0.874216 12.9429 0.983493 13.0522 1.14741C13.1068 1.22937 13.1615 1.36596 13.1068 1.50256Z" fill="black"/>
</svg>
