<svg xmlns="http://www.w3.org/2000/svg" width="25" height="24" fill="none">
  <path fill="#343A40" d="M16.25 6.25c.664 0 1.25-.547 1.25-1.25 0-.664-1.25-2.5-1.25-2.5S15 4.336 15 5c0 .703.547 1.25 1.25 1.25Zm-3.75 0c.664 0 1.25-.547 1.25-1.25 0-.664-1.25-2.5-1.25-2.5S11.25 4.336 11.25 5c0 .703.547 1.25 1.25 1.25Zm7.813 1.25h-.625a.642.642 0 0 0-.625.625v5.625h1.875V8.125c0-.313-.313-.625-.625-.625ZM20 6.25c.664 0 1.25-.547 1.25-1.25 0-.664-1.25-2.5-1.25-2.5S18.75 4.336 18.75 5c0 .703.547 1.25 1.25 1.25Zm3.75 0C24.414 6.25 25 5.703 25 5c0-.664-1.25-2.5-1.25-2.5S22.5 4.336 22.5 5c0 .703.547 1.25 1.25 1.25ZM16.562 7.5h-.625a.642.642 0 0 0-.624.625v5.625h1.874V8.125c0-.313-.312-.625-.625-.625ZM1.25 6.25c.664 0 1.25-.547 1.25-1.25 0-.664-1.25-2.5-1.25-2.5S0 4.336 0 5c0 .703.547 1.25 1.25 1.25ZM5.313 7.5h-.625a.642.642 0 0 0-.625.625v5.625h1.875V8.125c0-.313-.313-.625-.625-.625ZM8.75 6.25C9.414 6.25 10 5.703 10 5c0-.664-1.25-2.5-1.25-2.5S7.5 4.336 7.5 5c0 .703.547 1.25 1.25 1.25ZM24.375 7.5h-.625a.642.642 0 0 0-.625.625v5.313c0 .898-.703 1.562-1.563 1.562h-8.125V8.125c0-.313-.312-.625-.624-.625h-.626a.642.642 0 0 0-.624.625V15H3.437c-.898 0-1.562-.664-1.562-1.563V8.125c0-.313-.313-.625-.625-.625H.625A.642.642 0 0 0 0 8.125v5.313a3.418 3.418 0 0 0 3.438 3.437h8.124v3.75H4.375a.642.642 0 0 0-.625.625v.625c0 .352.273.625.625.625h16.25a.642.642 0 0 0 .625-.625v-.625c0-.313-.313-.625-.625-.625h-7.188v-3.75h8.126A3.443 3.443 0 0 0 25 13.437V8.125c0-.313-.313-.625-.625-.625ZM5 6.25c.664 0 1.25-.547 1.25-1.25C6.25 4.336 5 2.5 5 2.5S3.75 4.336 3.75 5c0 .703.547 1.25 1.25 1.25ZM9.063 7.5h-.626a.642.642 0 0 0-.624.625v5.625h1.875V8.125c0-.313-.313-.625-.626-.625Z"/>
</svg>
