<svg xmlns="http://www.w3.org/2000/svg" width="18" height="24" fill="none">
  <path fill="#343A40" d="m17.633 15.273-.43-1.25a2.138 2.138 0 0 0-1.953-1.484V7.5c0-2.734-2.266-5-5-5h-2.5c-2.773 0-5 2.266-5 5l-.04 5.04a2.138 2.138 0 0 0-1.952 1.483l-.43 1.25a2.296 2.296 0 0 0 .313 1.954c.234.312.507.546.82.703l.039 3.945c0 .352.273.625.625.625h.625a.642.642 0 0 0 .625-.625v-3.75h11.25v3.75c0 .352.273.625.625.625h.625a.642.642 0 0 0 .625-.625V17.93c.313-.157.586-.39.82-.703.39-.547.508-1.29.313-1.954Zm-5.82-10.43c.898.548 1.562 1.524 1.562 2.657v5h-1.563V4.844Zm-3.75-.468h1.874V12.5H8.063V4.375Zm-1.876.469V12.5H4.625v-5c0-1.133.625-2.11 1.563-2.656ZM2.125 15.859l.43-1.25c.039-.117.156-.234.273-.234h12.305c.117 0 .234.117.273.234l.43 1.25c.078.196-.078.391-.274.391H2.438c-.235 0-.391-.195-.313-.39Z"/>
</svg>
