<svg width="300" height="239" viewBox="0 0 300 239" fill="none" xmlns="http://www.w3.org/2000/svg">
<rect x="157.963" y="138" width="141" height="38" rx="4" fill="white" stroke="#212529" stroke-width="2"/>
<ellipse cx="291.577" cy="145.889" rx="3.08951" ry="3.11111" fill="#ADB5BD"/>
<ellipse cx="282.75" cy="145.889" rx="3.08951" ry="3.11111" fill="#ADB5BD"/>
<rect x="193.596" y="143.222" width="58.2593" height="4.88889" rx="2.44444" fill="#ADB5BD"/>
<rect x="193.596" y="150.778" width="38.3981" height="4.88889" rx="2.44444" fill="#ADB5BD"/>
<rect x="193.596" y="161.444" width="29.1296" height="3.11111" rx="1.55556" fill="#CED4DA"/>
<rect x="225.373" y="161.444" width="29.1296" height="3.11111" rx="1.55556" fill="#CED4DA"/>
<rect x="257.151" y="161.444" width="29.1296" height="3.11111" rx="1.55556" fill="#CED4DA"/>
<rect x="193.596" y="166.778" width="88.713" height="3.11111" rx="1.55556" fill="#CED4DA"/>
<rect x="162.7" y="144.111" width="25.5988" height="21.3333" rx="7" fill="#ADB5BD"/>
<path d="M162.7 146.389C162.7 144.627 164.1 143.167 165.9 143.167H185.099C186.849 143.167 188.299 144.627 188.299 146.389V162.5C188.299 164.312 186.849 165.722 185.099 165.722H165.9C164.1 165.722 162.7 164.312 162.7 162.5V146.389ZM178.85 151.776C178.65 151.424 178.25 151.222 177.9 151.222C177.5 151.222 177.1 151.424 176.9 151.776L172.55 158.22L171.2 156.509C171 156.257 170.65 156.056 170.3 156.056C169.9 156.056 169.55 156.257 169.35 156.509L166.15 160.536C165.85 160.939 165.8 161.443 166 161.845C166.2 162.248 166.6 162.5 167.1 162.5H171.9H173.5H183.899C184.299 162.5 184.749 162.299 184.949 161.896C185.149 161.493 185.099 160.99 184.849 160.637L178.85 151.776ZM168.3 151.222C169.6 151.222 170.7 150.165 170.7 148.806C170.7 147.496 169.6 146.389 168.3 146.389C166.95 146.389 165.9 147.496 165.9 148.806C165.9 150.165 166.95 151.222 168.3 151.222Z" fill="#E9ECEF"/>
<rect x="27.9629" y="14" width="141" height="38" rx="4" fill="white" stroke="#212529" stroke-width="2"/>
<ellipse cx="161.577" cy="21.8889" rx="3.08951" ry="3.11111" fill="#ADB5BD"/>
<ellipse cx="152.75" cy="21.8889" rx="3.08951" ry="3.11111" fill="#ADB5BD"/>
<rect x="63.5957" y="19.2222" width="58.2593" height="4.88889" rx="2.44444" fill="#ADB5BD"/>
<rect x="63.5957" y="26.7778" width="38.3981" height="4.88889" rx="2.44444" fill="#ADB5BD"/>
<rect x="63.5957" y="37.4445" width="29.1296" height="3.11111" rx="1.55556" fill="#CED4DA"/>
<rect x="95.3733" y="37.4445" width="29.1296" height="3.11111" rx="1.55556" fill="#CED4DA"/>
<rect x="127.151" y="37.4445" width="29.1296" height="3.11111" rx="1.55556" fill="#CED4DA"/>
<rect x="63.5957" y="42.7778" width="88.713" height="3.11111" rx="1.55556" fill="#CED4DA"/>
<rect x="32.7004" y="20.1111" width="25.5988" height="21.3333" rx="7" fill="#ADB5BD"/>
<path d="M32.7004 22.3888C32.7004 20.6267 34.1004 19.1666 35.9003 19.1666H55.0994C56.8493 19.1666 58.2992 20.6267 58.2992 22.3888V38.5C58.2992 40.3125 56.8493 41.7222 55.0994 41.7222H35.9003C34.1004 41.7222 32.7004 40.3125 32.7004 38.5V22.3888ZM48.8497 27.776C48.6497 27.4236 48.2497 27.2222 47.8997 27.2222C47.4997 27.2222 47.0997 27.4236 46.8998 27.776L42.55 34.2204L41.2 32.5086C41 32.2569 40.6501 32.0555 40.3001 32.0555C39.9001 32.0555 39.5501 32.2569 39.3501 32.5086L36.1503 36.5364C35.8503 36.9392 35.8003 37.4427 36.0003 37.8454C36.2003 38.2482 36.6003 38.5 37.1002 38.5H41.9H43.4999H53.8994C54.2994 38.5 54.7494 38.2986 54.9494 37.8958C55.1494 37.493 55.0994 36.9895 54.8494 36.6371L48.8497 27.776ZM38.3002 27.2222C39.6001 27.2222 40.7001 26.1649 40.7001 24.8055C40.7001 23.4965 39.6001 22.3888 38.3002 22.3888C36.9502 22.3888 35.9003 23.4965 35.9003 24.8055C35.9003 26.1649 36.9502 27.2222 38.3002 27.2222Z" fill="#E9ECEF"/>
<path d="M2.93236 228.722L2.94063 228.713L2.94905 228.705L69.8333 161.821C54.5587 144.827 45.5601 122.362 45.5601 97.6562C45.5601 44.5392 88.6133 1.5 141.716 1.5C194.828 1.5 237.463 44.5615 237.463 97.6562C237.463 150.755 194.419 193.812 141.716 193.812C117.015 193.812 94.5313 184.422 77.5066 169.111L10.6223 235.996L10.5079 236.11L10.3717 236.198C9.77022 236.584 9.18964 236.896 8.65544 237.117C8.14888 237.326 7.57274 237.5 7.01323 237.5C6.50536 237.5 5.85782 237.356 5.27307 237.142C4.7039 236.934 4.00711 236.593 3.44817 236.062C0.945587 234.051 0.94342 230.775 2.93236 228.722ZM141.716 183.531C189.081 183.531 227.591 145.007 227.591 97.6562C227.591 50.3056 189.067 11.7812 141.716 11.7812C94.3657 11.7812 55.8414 50.3056 55.8414 97.6562C55.8414 145.012 93.9472 183.531 141.716 183.531Z" fill="#6C757D" stroke="#343A40" stroke-width="3"/>
<rect x="84.9629" y="70" width="186" height="50.2222" rx="4" fill="white" stroke="#212529" stroke-width="2"/>
<circle cx="260.938" cy="80.6049" r="4.06173" fill="#ADB5BD"/>
<circle cx="249.333" cy="80.6049" r="4.06173" fill="#ADB5BD"/>
<rect x="132.123" y="77.1235" width="76.5926" height="6.38272" rx="3.19136" fill="#ADB5BD"/>
<rect x="132.123" y="86.9877" width="50.4815" height="6.38272" rx="3.19136" fill="#ADB5BD"/>
<rect x="132.123" y="100.914" width="38.2963" height="4.06173" rx="2.03086" fill="#CED4DA"/>
<rect x="173.901" y="100.914" width="38.2963" height="4.06173" rx="2.03086" fill="#CED4DA"/>
<rect x="215.679" y="100.914" width="38.2963" height="4.06173" rx="2.03086" fill="#CED4DA"/>
<rect x="132.123" y="107.876" width="116.63" height="4.06173" rx="2.03086" fill="#CED4DA"/>
<rect x="91.5061" y="76.5432" width="33.6543" height="27.8519" rx="7" fill="#FDF3F3"/>
<path d="M106.477 85L108.431 88.5909L110.439 85H113.79L110.45 90.7738L113.943 96.8095H110.581L108.453 93.0113L106.325 96.8095H102.963L106.456 90.7738L103.116 85H106.477Z" fill="#DA615C"/>
</svg>
