<svg xmlns="http://www.w3.org/2000/svg" width="25" height="24" fill="none">
  <path fill="#343A40" d="M21.914 12.188c-.664-.079-1.055-.274-1.523-.508-.508-.235-2.774-1.524-5.82 0-2.071 1.015-3.516.312-4.18 0-.47-.235-2.774-1.524-5.82 0-.47.234-.86.43-1.524.508a.604.604 0 0 0-.547.624v.626c0 .351.313.664.703.624 1.016-.117 1.64-.43 2.188-.703 2.07-1.015 3.554-.312 4.18 0 3.046 1.524 5.312.235 5.82 0 2.187-1.093 3.75-.195 4.18 0 .546.274 1.171.586 2.187.704.39.039.742-.274.742-.626v-.624c-.04-.352-.273-.586-.586-.626ZM21.25 3.75H3.75c-.703 0-1.25.586-1.25 1.25v3.75c0 .703.547 1.25 1.25 1.25h17.5c.664 0 1.25-.547 1.25-1.25V5c0-.664-.586-1.25-1.25-1.25Zm-.625 4.375H4.375v-2.5h16.25v2.5ZM21.25 15H3.75c-.703 0-1.25.586-1.25 1.25V20c0 .703.547 1.25 1.25 1.25h17.5c.664 0 1.25-.547 1.25-1.25v-3.75c0-.664-.586-1.25-1.25-1.25Zm-.625 4.375H4.375v-2.5h9.063l2.812 1.875 2.813-1.875h1.562v2.5Z"/>
</svg>
