<svg width="572" height="239" viewBox="0 0 572 239" fill="none" xmlns="http://www.w3.org/2000/svg">
<rect x="295" y="83" width="129" height="30" rx="4" fill="white" stroke="#212529" stroke-width="2"/>
<circle cx="410.938" cy="98.0617" r="4.06173" fill="#ADB5BD"/>
<rect x="305" y="95" width="76.5926" height="6.38272" rx="3.19136" fill="#ADB5BD"/>
<rect x="442" y="83" width="129" height="30" rx="4" fill="white" stroke="#212529" stroke-width="2"/>
<circle cx="557.938" cy="98.0617" r="4.06173" fill="#ADB5BD"/>
<rect x="452" y="95" width="76.5926" height="6.38272" rx="3.19136" fill="#ADB5BD"/>
<path d="M151.932 228.722L151.941 228.713L151.949 228.705L218.833 161.821C203.559 144.827 194.56 122.362 194.56 97.6562C194.56 44.5392 237.613 1.5 290.716 1.5C343.828 1.5 386.463 44.5615 386.463 97.6562C386.463 150.755 343.419 193.812 290.716 193.812C266.015 193.812 243.531 184.422 226.507 169.111L159.622 235.996L159.508 236.11L159.372 236.198C158.77 236.584 158.19 236.896 157.655 237.117C157.149 237.326 156.573 237.5 156.013 237.5C155.505 237.5 154.858 237.356 154.273 237.142C153.704 236.934 153.007 236.593 152.448 236.062C149.946 234.051 149.943 230.775 151.932 228.722ZM290.716 183.531C338.081 183.531 376.591 145.007 376.591 97.6562C376.591 50.3056 338.067 11.7812 290.716 11.7812C243.366 11.7812 204.841 50.3056 204.841 97.6562C204.841 145.012 242.947 183.531 290.716 183.531Z" fill="#6C757D" stroke="#343A40" stroke-width="3"/>
<rect x="148" y="83" width="129" height="30" rx="4" fill="white" stroke="#212529" stroke-width="2"/>
<circle cx="263.938" cy="98.0617" r="4.06173" fill="#212529"/>
<rect x="158" y="95" width="76.5926" height="6.38272" rx="3.19136" fill="#0D6EFD"/>
<rect x="1" y="83" width="129" height="30" rx="4" fill="white" stroke="#212529" stroke-width="2"/>
<circle cx="116.938" cy="98.0617" r="4.06173" fill="#ADB5BD"/>
<rect x="11" y="95" width="76.5926" height="6.38272" rx="3.19136" fill="#ADB5BD"/>
</svg>
