<svg xmlns="http://www.w3.org/2000/svg" width="25" height="24" fill="none">
  <path fill="#343A40" d="M11.992 7.734a.647.647 0 0 0 .469.196.627.627 0 0 0 .43-.196l.43-.43a.627.627 0 0 0 .195-.429.647.647 0 0 0-.196-.469L10.664 3.75a.588.588 0 0 0-.43-.156.587.587 0 0 0-.43.156l-.468.469a.587.587 0 0 0-.156.43c0 .156.039.312.156.43l2.656 2.655Zm3.945-.234h.626a.642.642 0 0 0 .625-.625v-3.75c0-.313-.313-.625-.625-.625h-.625a.642.642 0 0 0-.626.625v3.75c0 .352.274.625.626.625Zm3.633.234a.627.627 0 0 0 .43.196.647.647 0 0 0 .469-.196l2.656-2.656a.587.587 0 0 0 .156-.43.587.587 0 0 0-.156-.43l-.469-.468a.587.587 0 0 0-.43-.156.587.587 0 0 0-.43.156l-2.655 2.656a.647.647 0 0 0-.196.469c0 .156.078.313.196.43l.43.43ZM4.375 14.063a.925.925 0 0 0-.938.937c0 .547.391.938.938.938.508 0 .938-.391.938-.938a.95.95 0 0 0-.938-.938ZM23.125 10H18.75c-.742-.352-1.602-.625-2.5-.625-.938 0-1.797.273-2.54.625H1.876C.82 10 0 10.86 0 11.875v6.25C0 19.18.82 20 1.875 20H2.5l.508 2.031c.039.274.312.469.586.469h.898a.669.669 0 0 0 .625-.469L5.625 20h8.086a5.387 5.387 0 0 0 5.04 0h.624l.508 2.031c.039.274.312.469.586.469h.898a.669.669 0 0 0 .625-.469L22.5 20h.625C24.141 20 25 19.18 25 18.125v-6.25C25 10.859 24.14 10 23.125 10Zm-11.563 8.125H1.876v-6.25h9.688A5.762 5.762 0 0 0 10.624 15c0 1.172.352 2.266.938 3.125Zm4.688.625c-2.07 0-3.75-1.68-3.75-3.75 0-2.031 1.68-3.75 3.75-3.75 2.031 0 3.75 1.719 3.75 3.75-.04 2.07-1.719 3.75-3.75 3.75Zm6.875-.625h-2.227c.586-.86.938-1.953.938-3.086a5.793 5.793 0 0 0-.938-3.164h2.227v6.25Zm-16.25-4.063a.925.925 0 0 0-.938.938c0 .547.391.938.938.938.508 0 .938-.391.938-.938a.95.95 0 0 0-.938-.938Z"/>
</svg>
