<svg xmlns="http://www.w3.org/2000/svg" width="25" height="24" fill="none">
  <path fill="#343A40" d="M22.46 6.25a1.26 1.26 0 0 0-.702.234L17.5 9.18V6.875C17.5 5.859 16.562 5 15.469 5H3.242C2.148 5 1.25 5.86 1.25 6.875v11.29C1.25 19.18 2.148 20 3.242 20H15.47c1.094 0 2.031-.82 2.031-1.836V15.86l4.258 2.696c.234.156.469.195.703.195.664 0 1.289-.508 1.289-1.21V7.5c0-.742-.625-1.25-1.29-1.25Zm-6.835 4.063v7.773c-.04.039-.078.039-.156.039H3.242c-.078 0-.117 0-.117-.04V6.954c0-.039.04-.078.117-.078H15.47c.078 0 .117.04.156.078v3.36Zm6.25 6.093L17.5 13.672v-2.305l4.375-2.734v7.773Z"/>
</svg>
