<svg xmlns="http://www.w3.org/2000/svg" width="25" height="24" fill="none">
  <path fill="#343A40" d="M22.031 18.125c-.117-.234-.43-.313-.664-.195l-1.562.82-2.422-5.352a.881.881 0 0 0-.82-.585h-6.055l-.274-1.876h5.547a.475.475 0 0 0 .469-.468V9.53a.504.504 0 0 0-.469-.469H10L9.61 6.25a1.823 1.823 0 0 0 1.6-1.953c-.038-.938-.82-1.719-1.796-1.758C8.36 2.461 7.5 3.32 7.5 4.375c0 .195-.117-.586 1.25 9.531.04.469.43.781.938.781h6.25l2.539 5.704c.234.507.78.703 1.289.468l2.46-1.25a.455.455 0 0 0 .196-.625l-.39-.859Zm-7.304-1.563h-.47a4.949 4.949 0 0 1-4.882 4.063c-2.773 0-5-2.227-5-5 0-1.68.86-3.203 2.148-4.102l-.273-2.03a6.897 6.897 0 0 0-3.75 6.132A6.836 6.836 0 0 0 9.375 22.5a6.85 6.85 0 0 0 6.21-3.945l-.858-1.992Z"/>
</svg>
